<?xml version="1.0" encoding="UTF-8" standalone="no"?>
<!-- Created with Inkscape (http://www.inkscape.org/) -->

<svg
   xmlns:dc="http://purl.org/dc/elements/1.1/"
   xmlns:cc="http://creativecommons.org/ns#"
   xmlns:rdf="http://www.w3.org/1999/02/22-rdf-syntax-ns#"
   xmlns:svg="http://www.w3.org/2000/svg"
   xmlns="http://www.w3.org/2000/svg"
   xmlns:xlink="http://www.w3.org/1999/xlink"
   xmlns:sodipodi="http://sodipodi.sourceforge.net/DTD/sodipodi-0.dtd"
   xmlns:inkscape="http://www.inkscape.org/namespaces/inkscape"
   width="16px"
   height="16px"
   id="svg3810"
   version="1.1"
   inkscape:version="0.48.3.1 r9886"
   sodipodi:docname="lodev4.0-startcenter.svg">
  <defs
     id="defs3812">
    <linearGradient
       inkscape:collect="always"
       xlink:href="#linearGradient3977"
       id="linearGradient3988"
       gradientUnits="userSpaceOnUse"
       gradientTransform="matrix(0.24324324,0,0,0.35135133,2.1621636,-0.43242804)"
       x1="23.99999"
       y1="5.5641499"
       x2="23.99999"
       y2="43" />
    <linearGradient
       id="linearGradient3977">
      <stop
         offset="0"
         style="stop-color:#ffffff;stop-opacity:1;"
         id="stop3979" />
      <stop
         id="stop3981"
         style="stop-color:#ffffff;stop-opacity:0.23529412;"
         offset="0.03626217" />
      <stop
         offset="0.95056331"
         style="stop-color:#ffffff;stop-opacity:0.15686275;"
         id="stop3983" />
      <stop
         offset="1"
         style="stop-color:#ffffff;stop-opacity:0.39215687;"
         id="stop3985" />
    </linearGradient>
    <linearGradient
       id="linearGradient3600">
      <stop
         id="stop3602"
         style="stop-color:#f4f4f4;stop-opacity:1"
         offset="0" />
      <stop
         id="stop3604"
         style="stop-color:#dbdbdb;stop-opacity:1"
         offset="1" />
    </linearGradient>
    <linearGradient
       id="linearGradient3104">
      <stop
         id="stop3106"
         style="stop-color:#a0a0a0;stop-opacity:1;"
         offset="0" />
      <stop
         id="stop3108"
         style="stop-color:#bebebe;stop-opacity:1;"
         offset="1" />
    </linearGradient>
    <linearGradient
       y2="47.013336"
       x2="25.132275"
       y1="0.98520643"
       x1="25.132275"
       gradientTransform="matrix(0.31428714,0,0,0.3259265,0.457108,-0.32223804)"
       gradientUnits="userSpaceOnUse"
       id="linearGradient3806"
       xlink:href="#linearGradient3600"
       inkscape:collect="always" />
    <linearGradient
       y2="2.9062471"
       x2="-51.786404"
       y1="50.786446"
       x1="-51.786404"
       gradientTransform="matrix(0.25378586,0,0,0.30501865,19.128979,-0.68547704)"
       gradientUnits="userSpaceOnUse"
       id="linearGradient3808"
       xlink:href="#linearGradient3104"
       inkscape:collect="always" />
    <linearGradient
       inkscape:collect="always"
       xlink:href="#linearGradient3104"
       id="linearGradient4233"
       x1="7.6940594"
       y1="15.072772"
       x2="7.6940594"
       y2="1.0614462"
       gradientUnits="userSpaceOnUse" />
    <linearGradient
       gradientTransform="translate(-29.068027,-3.9279337)"
       y2="12"
       x2="37"
       y1="5"
       x1="37"
       gradientUnits="userSpaceOnUse"
       id="linearGradient4190"
       xlink:href="#linearGradient4055"
       inkscape:collect="always" />
    <linearGradient
       id="linearGradient4055">
      <stop
         style="stop-color:#000000;stop-opacity:1;"
         offset="0"
         id="stop4057" />
      <stop
         style="stop-color:#414141;stop-opacity:1;"
         offset="1"
         id="stop4059" />
    </linearGradient>
    <linearGradient
       y2="24.032999"
       x2="22.999994"
       y1="44"
       x1="24"
       gradientTransform="translate(-29.068021,-2.9609327)"
       gradientUnits="userSpaceOnUse"
       id="linearGradient4192"
       xlink:href="#linearGradient2490-3-7"
       inkscape:collect="always" />
    <linearGradient
       id="linearGradient2490-3-7">
      <stop
         offset="0"
         style="stop-color:#363636;stop-opacity:1;"
         id="stop2492-3-7" />
      <stop
         offset="1"
         style="stop-color:#5f5f5f;stop-opacity:1;"
         id="stop2494-8-5" />
    </linearGradient>
    <linearGradient
       inkscape:collect="always"
       xlink:href="#linearGradient3924-6"
       id="linearGradient4768"
       gradientUnits="userSpaceOnUse"
       gradientTransform="translate(-30.000984,-4.027973)"
       x1="36.999992"
       y1="5.032989"
       x2="36.999992"
       y2="12.032989" />
    <linearGradient
       id="linearGradient3924-6">
      <stop
         id="stop3926-4"
         style="stop-color:#030000;stop-opacity:1;"
         offset="0" />
      <stop
         id="stop3928-3"
         style="stop-color:#595959;stop-opacity:0.23529412;"
         offset="1" />
    </linearGradient>
    <linearGradient
       y2="12"
       x2="37"
       y1="5.18648"
       x1="43.78788"
       gradientTransform="translate(-30.000993,-4.994984)"
       gradientUnits="userSpaceOnUse"
       id="linearGradient3040"
       xlink:href="#linearGradient2490-3-7"
       inkscape:collect="always" />
    <linearGradient
       y2="24.032999"
       x2="22.999994"
       y1="44"
       x1="24"
       gradientTransform="translate(-30.000987,-4.027983)"
       gradientUnits="userSpaceOnUse"
       id="linearGradient3042"
       xlink:href="#linearGradient2490-3-7"
       inkscape:collect="always" />
  </defs>
  <sodipodi:namedview
     id="base"
     pagecolor="#ffffff"
     bordercolor="#666666"
     borderopacity="1.0"
     inkscape:pageopacity="0.0"
     inkscape:pageshadow="2"
     inkscape:zoom="53.625"
     inkscape:cx="8"
     inkscape:cy="8"
     inkscape:current-layer="layer1"
     showgrid="true"
     inkscape:grid-bbox="true"
     inkscape:document-units="px"
     inkscape:window-width="958"
     inkscape:window-height="1031"
     inkscape:window-x="0"
     inkscape:window-y="26"
     inkscape:window-maximized="0"
     inkscape:snap-global="false">
    <inkscape:grid
       type="xygrid"
       id="grid3038" />
  </sodipodi:namedview>
  <metadata
     id="metadata3815">
    <rdf:RDF>
      <cc:Work
         rdf:about="">
        <dc:format>image/svg+xml</dc:format>
        <dc:type
           rdf:resource="http://purl.org/dc/dcmitype/StillImage" />
        <dc:title></dc:title>
      </cc:Work>
    </rdf:RDF>
  </metadata>
  <g
     id="layer1"
     inkscape:label="Layer 1"
     inkscape:groupmode="layer">
    <path
       inkscape:connector-curvature="0"
       style="fill:url(#linearGradient3806);fill-opacity:1;stroke:url(#linearGradient3808);stroke-width:0.99992192;stroke-linecap:butt;stroke-linejoin:round;stroke-miterlimit:4;stroke-opacity:1;stroke-dasharray:none;stroke-dashoffset:0;display:inline"
       id="path4160"
       d="m 2.4999621,0.49997396 c 2.5206756,0 11.0000629,9.54e-4 11.0000629,9.54e-4 l 1.3e-5,14.99909804 c 0,0 -7.3333841,0 -11.0000759,0 0,-5.000017 0,-10.000035 0,-15.00005204 z"
       sodipodi:nodetypes="ccccc" />
    <path
       style="fill:none;stroke:url(#linearGradient3988);stroke-width:1;stroke-linecap:round;stroke-linejoin:miter;stroke-miterlimit:4;stroke-opacity:1;stroke-dasharray:none;stroke-dashoffset:0"
       d="m 12.5,14.5 -9.0000001,0 0,-13 L 12.5,1.5 z"
       id="rect6741-1"
       inkscape:connector-curvature="0"
       sodipodi:nodetypes="ccccc" />
    <path
       style="color:#000000;fill:url(#linearGradient3040);fill-opacity:1;fill-rule:nonzero;stroke:url(#linearGradient3042);stroke-width:1;stroke-linecap:round;stroke-linejoin:round;stroke-miterlimit:4;stroke-opacity:1;stroke-dashoffset:0;marker:none;visibility:visible;display:inline;overflow:visible;enable-background:accumulate"
       d="m 4.4990065,0.473766 3.6620722,3.6620716 5.3379283,5.3379281 0,-1.9999997 0.0084,-6.0662592 8.76e-4,-0.63071054 C 13.508766,0.46728493 13.543762,0.473766 13.168008,0.473766 z"
       id="rect5644"
       inkscape:connector-curvature="0"
       sodipodi:nodetypes="cccccssc" />
    <path
       d="m 5.1371641,8.1994473 c -0.2691319,0 -0.4857951,0.2166646 -0.4857951,0.4857924 l 0,1.7812513 -0.1619321,0 c -0.2691292,0 -0.4857951,0.216666 -0.4857951,0.485795 l 0,1.619318 c 0,0.269132 0.2166659,0.485796 0.4857951,0.485796 l 0.1619321,0 0,0.485797 c 0,0.269128 0.2166632,0.485794 0.4857951,0.485794 l 3.5625004,0 c 0.26913,0 0.485795,-0.216666 0.485795,-0.485794 l 0,-0.485797 0.161934,0 c 0.269128,0 0.485795,-0.216664 0.485795,-0.485796 l 0,-1.619318 c 0,-0.269129 -0.216667,-0.485795 -0.485795,-0.485795 l -0.151812,0 -0.01013,0 0,-1.7812513 c 0,-0.2691278 -0.216662,-0.4857924 -0.485794,-0.4857924 l -3.5625018,0 z m 0.3238642,0.6477275 2.9147724,0 c 0.089715,0 0.1619318,0.07222 0.1619318,0.1619295 l 0,1.4573867 0,0.323864 -3.2386377,0 0,-0.323864 0,-1.4573867 c 0,-0.089702 0.072223,-0.1619295 0.1619335,-0.1619295 z m 0.1619321,0.6477245 0,0.3238656 2.6010296,0 0,-0.3238656 -2.6010296,0 z m 0,0.6477287 0,0.323863 1.943181,0 0,-0.323863 -1.943181,0 z m 2.7528403,1.295456 c 0.089382,0 0.1619318,0.07255 0.1619318,0.161929 0,0.08938 -0.072539,0.161935 -0.1619318,0.161935 -0.089382,0 -0.1619335,-0.07255 -0.1619335,-0.161935 0,-0.08938 0.072553,-0.161929 0.1619335,-0.161929 z m 0.6477268,0 c 0.08938,0 0.161932,0.07255 0.161932,0.161929 0,0.08938 -0.07254,0.161935 -0.161932,0.161935 -0.08938,0 -0.161932,-0.07255 -0.161932,-0.161935 0,-0.08938 0.07255,-0.161929 0.161932,-0.161929 z m -3.7244327,1.295455 3.2386377,0 0,0.323861 0,0.161934 c 0,0.0897 -0.072219,0.16193 -0.1619318,0.16193 l -2.9147724,0 c -0.089715,0 -0.1619335,-0.07222 -0.1619335,-0.16193 l 0,-0.161934 0,-0.323861 z"
       inkscape:connector-curvature="0"
       id="path17184"
       style="opacity:0.7;fill:#000000;fill-opacity:0.61568627;stroke:none;display:inline" />
  </g>
</svg>
