<?xml version="1.0" encoding="UTF-8" standalone="no"?>
<!-- Created with Inkscape (http://www.inkscape.org/) -->

<svg
   xmlns:dc="http://purl.org/dc/elements/1.1/"
   xmlns:cc="http://creativecommons.org/ns#"
   xmlns:rdf="http://www.w3.org/1999/02/22-rdf-syntax-ns#"
   xmlns:svg="http://www.w3.org/2000/svg"
   xmlns="http://www.w3.org/2000/svg"
   xmlns:xlink="http://www.w3.org/1999/xlink"
   xmlns:sodipodi="http://sodipodi.sourceforge.net/DTD/sodipodi-0.dtd"
   xmlns:inkscape="http://www.inkscape.org/namespaces/inkscape"
   id="svg3795"
   height="128"
   width="128"
   version="1.0"
   inkscape:version="0.48.2 r9819"
   sodipodi:docname="gnome-dev-disc-dvdr-plus.svg">
  <metadata
     id="metadata79">
    <rdf:RDF>
      <cc:Work
         rdf:about="">
        <dc:format>image/svg+xml</dc:format>
        <dc:type
           rdf:resource="http://purl.org/dc/dcmitype/StillImage" />
      </cc:Work>
    </rdf:RDF>
  </metadata>
  <sodipodi:namedview
     pagecolor="#ffffff"
     bordercolor="#666666"
     borderopacity="1"
     objecttolerance="10"
     gridtolerance="10"
     guidetolerance="10"
     inkscape:pageopacity="0"
     inkscape:pageshadow="2"
     inkscape:window-width="1189"
     inkscape:window-height="751"
     id="namedview77"
     showgrid="false"
     inkscape:zoom="4.9166667"
     inkscape:cx="24"
     inkscape:cy="48.40678"
     inkscape:window-x="204"
     inkscape:window-y="111"
     inkscape:window-maximized="0"
     inkscape:current-layer="svg3795" />
  <defs
     id="defs3797">
    <linearGradient
       id="linearGradient7559"
       y2="32.485001"
       xlink:href="#linearGradient7495"
       gradientUnits="userSpaceOnUse"
       x2="24.104"
       gradientTransform="matrix(1.2819112,0,0,1.2728427,50.144183,83.043674)"
       y1="15.169"
       x1="24.104" />
    <linearGradient
       id="linearGradient7495">
      <stop
         id="stop7497"
         style="stop-color:#e4ee9c"
         offset="0" />
      <stop
         id="stop7499"
         style="stop-color:#a2bb49"
         offset="1" />
    </linearGradient>
    <linearGradient
       id="linearGradient3921"
       y2="58.064999"
       xlink:href="#linearGradient7495"
       gradientUnits="userSpaceOnUse"
       x2="29.436001"
       gradientTransform="matrix(3.6728547,0,0,3.6413122,3.4341089,-86.068499)"
       y1="51.644001"
       x1="29.502001" />
    <linearGradient
       id="linearGradient3918"
       y2="58.064999"
       gradientUnits="userSpaceOnUse"
       x2="29.436001"
       gradientTransform="matrix(3.6728545,0,0,3.641312,3.4341089,-86.068498)"
       y1="51.644001"
       x1="29.502001">
      <stop
         id="stop2266"
         style="stop-color:#d7e866"
         offset="0" />
      <stop
         id="stop2268"
         style="stop-color:#8cab2a"
         offset="1" />
    </linearGradient>
    <radialGradient
       id="radialGradient2464"
       gradientUnits="userSpaceOnUse"
       cy="41.636002"
       cx="23.334999"
       gradientTransform="matrix(0.97227,0,0,0.28724,1.3125,27.541)"
       r="22.627001">
      <stop
         id="stop23421"
         offset="0" />
      <stop
         id="stop23423"
         style="stop-opacity:0"
         offset="1" />
    </radialGradient>
    <linearGradient
       id="linearGradient3258"
       y2="14.203"
       gradientUnits="userSpaceOnUse"
       x2="35.390999"
       gradientTransform="matrix(0,1.1714,-1.1714,0,51.06,-4.1145)"
       y1="32.416"
       x1="12.274">
      <stop
         id="stop3265"
         style="stop-color:#dedbde"
         offset="0" />
      <stop
         id="stop3267"
         style="stop-color:#e6e6e6"
         offset=".5" />
      <stop
         id="stop3269"
         style="stop-color:#d2d2d2"
         offset="1" />
    </linearGradient>
    <linearGradient
       id="linearGradient3434"
       y2="32.508999"
       gradientUnits="userSpaceOnUse"
       x2="21.448"
       gradientTransform="matrix(0.9375,0,0,0.9375,1.5,1.5)"
       y1="15.5"
       x1="21.448">
      <stop
         id="stop3430"
         style="stop-color:#aaa"
         offset="0" />
      <stop
         id="stop3432"
         style="stop-color:#d4d4d4"
         offset="1" />
    </linearGradient>
    <linearGradient
       id="linearGradient3717"
       y2="20.613001"
       xlink:href="#linearGradient3519"
       spreadMethod="reflect"
       gradientUnits="userSpaceOnUse"
       x2="9.7298002"
       y1="17.886"
       x1="10.609" />
    <linearGradient
       id="linearGradient3715"
       y2="13.462"
       xlink:href="#linearGradient3511"
       spreadMethod="reflect"
       gradientUnits="userSpaceOnUse"
       x2="14.609"
       y1="16.188"
       x1="12.372" />
    <linearGradient
       id="linearGradient3713"
       y2="10.732"
       xlink:href="#linearGradient3503"
       spreadMethod="reflect"
       gradientUnits="userSpaceOnUse"
       x2="16.993999"
       y1="13.046"
       x1="14.085" />
    <linearGradient
       id="linearGradient3711"
       y2="9.7955999"
       xlink:href="#linearGradient3495"
       spreadMethod="reflect"
       gradientUnits="userSpaceOnUse"
       x2="21.047001"
       y1="11.2"
       x1="17.495001" />
    <linearGradient
       id="linearGradient3709"
       y2="9.8621998"
       xlink:href="#linearGradient3487"
       spreadMethod="reflect"
       gradientUnits="userSpaceOnUse"
       x2="24.274"
       y1="10.775"
       x1="20.58" />
    <linearGradient
       id="linearGradient3519">
      <stop
         id="stop3521"
         style="stop-color:#fcd9cd"
         offset="0" />
      <stop
         id="stop3523"
         style="stop-color:#fcd9cd;stop-opacity:0"
         offset="1" />
    </linearGradient>
    <linearGradient
       id="linearGradient3511">
      <stop
         id="stop3513"
         style="stop-color:#ebeec7"
         offset="0" />
      <stop
         id="stop3515"
         style="stop-color:#ebeec7;stop-opacity:0"
         offset="1" />
    </linearGradient>
    <linearGradient
       id="linearGradient3503">
      <stop
         id="stop3505"
         style="stop-color:#c4ebdd"
         offset="0" />
      <stop
         id="stop3507"
         style="stop-color:#c4ebdd;stop-opacity:0"
         offset="1" />
    </linearGradient>
    <linearGradient
       id="linearGradient3495">
      <stop
         id="stop3497"
         style="stop-color:#c1cbe4"
         offset="0" />
      <stop
         id="stop3499"
         style="stop-color:#c1cbe4;stop-opacity:0"
         offset="1" />
    </linearGradient>
    <linearGradient
       id="linearGradient3487">
      <stop
         id="stop3489"
         style="stop-color:#e6cde2"
         offset="0" />
      <stop
         id="stop3491"
         style="stop-color:#e6cde2;stop-opacity:0"
         offset="1" />
    </linearGradient>
    <linearGradient
       id="linearGradient3766"
       y2="54.698002"
       xlink:href="#linearGradient6036"
       gradientUnits="userSpaceOnUse"
       x2="48.799"
       gradientTransform="matrix(0.98497,0,0,0.98497,0.019022,-0.62415)"
       y1="3.6099999"
       x1="10.502" />
    <linearGradient
       id="linearGradient3778"
       y2="45.175999"
       gradientUnits="userSpaceOnUse"
       x2="20.018999"
       y1="3"
       x1="20.018999">
      <stop
         id="stop3774"
         style="stop-color:#b4b4b4"
         offset="0" />
      <stop
         id="stop3776"
         style="stop-color:#969696"
         offset="1" />
    </linearGradient>
    <linearGradient
       id="linearGradient6036">
      <stop
         id="stop6038"
         style="stop-color:#fff"
         offset="0" />
      <stop
         id="stop6040"
         style="stop-color:#fff;stop-opacity:0"
         offset="1" />
    </linearGradient>
    <linearGradient
       id="linearGradient3294"
       y2="45.962002"
       xlink:href="#linearGradient6036"
       gradientUnits="userSpaceOnUse"
       x2="18.202999"
       gradientTransform="matrix(0.42934,0,0,0.42934,13.547,13.266)"
       y1="4.0377998"
       x1="18.775999" />
    <linearGradient
       inkscape:collect="always"
       xlink:href="#linearGradient3487"
       id="linearGradient3056"
       gradientUnits="userSpaceOnUse"
       spreadMethod="reflect"
       x1="20.58"
       y1="10.775"
       x2="24.274"
       y2="9.8621998" />
    <linearGradient
       inkscape:collect="always"
       xlink:href="#linearGradient3495"
       id="linearGradient3058"
       gradientUnits="userSpaceOnUse"
       spreadMethod="reflect"
       x1="17.495001"
       y1="11.2"
       x2="21.047001"
       y2="9.7955999" />
    <linearGradient
       inkscape:collect="always"
       xlink:href="#linearGradient3503"
       id="linearGradient3060"
       gradientUnits="userSpaceOnUse"
       spreadMethod="reflect"
       x1="14.085"
       y1="13.046"
       x2="16.993999"
       y2="10.732" />
    <linearGradient
       inkscape:collect="always"
       xlink:href="#linearGradient3511"
       id="linearGradient3062"
       gradientUnits="userSpaceOnUse"
       spreadMethod="reflect"
       x1="12.372"
       y1="16.188"
       x2="14.609"
       y2="13.462" />
    <linearGradient
       inkscape:collect="always"
       xlink:href="#linearGradient3519"
       id="linearGradient3064"
       gradientUnits="userSpaceOnUse"
       spreadMethod="reflect"
       x1="10.609"
       y1="17.886"
       x2="9.7298002"
       y2="20.613001" />
  </defs>
  <g
     id="layer1"
     transform="matrix(2.6285369,0,0,2.6285369,0.81180154,1.8297743)">
    <path
       id="path23417"
       style="opacity:0.3;fill:url(#radialGradient2464);fill-rule:evenodd"
       d="M 46,39.5 C 46.0011,43.0898 36.1511,46 24,46 11.8489,46 1.999,43.0898 2,39.5 1.9989,35.91 11.849,33 24,33 c 12.151,0 22.001,2.9102 22,6.5 z"
       inkscape:connector-curvature="0" />
    <path
       id="path2781"
       style="fill:url(#linearGradient3258)"
       d="M 44.5,24 C 44.5,12.637 35.363,3.5 24,3.5 12.637,3.5 3.5,12.637 3.5,24 c -2e-6,11.363 9.137,20.5 20.5,20.5 11.363,-2e-6 20.5,-9.137 20.5,-20.5 z M 32,24 c 0,4.623 -3.377,8 -8,8 -4.623,0 -8,-3.377 -8,-8 0,-4.623 3.377,-8 8,-8 4.623,0 8,3.377 8,8 z"
       inkscape:connector-curvature="0" />
    <path
       id="path2474"
       style="opacity:0.5;fill:#ffffff"
       d="m 24,16 c -4.416,0 -8,3.584 -8,8 0,4.416 3.584,8 8,8 4.416,0 8,-3.584 8,-8 0,-4.416 -3.584,-8 -8,-8 z m 0,4 c 2.208,0 4,1.792 4,4 0,2.208 -1.792,4 -4,4 -2.208,0 -4,-1.792 -4,-4 0,-2.208 1.792,-4 4,-4 z"
       inkscape:connector-curvature="0" />
    <path
       id="path3418"
       style="fill:none;stroke:url(#linearGradient3434);stroke-linejoin:round"
       d="m 24,16.5 c -4.14,0 -7.5,3.36 -7.5,7.5 0,4.14 3.36,7.5 7.5,7.5 4.14,0 7.5,-3.36 7.5,-7.5 0,-4.14 -3.36,-7.5 -7.5,-7.5 z m 0,3.75 c 2.07,0 3.75,1.68 3.75,3.75 0,2.07 -1.68,3.75 -3.75,3.75 -2.07,0 -3.75,-1.68 -3.75,-3.75 0,-2.07 1.68,-3.75 3.75,-3.75 z"
       inkscape:connector-curvature="0" />
    <g
       id="g3527">
      <path
         id="path3296"
         style="opacity:0.8;fill:url(#linearGradient3056)"
         d="m 24,3.5 c -2.9758,0 -5.7974,0.62082 -8.3438,1.75 l 4.969,11.094 c 1.035,-0.459 2.17,-0.719 3.375,-0.719 0.03206,0 0.06178,-3.6e-4 0.09375,0 V 3.5 c -0.03127,-1.386e-4 -0.06245,0 -0.09375,0 z"
         transform="matrix(0.9996,0.028243,-0.028243,0.9996,0.69241,-0.67083)"
         inkscape:connector-curvature="0" />
      <path
         id="path3308"
         style="opacity:0.8;fill:url(#linearGradient3058)"
         d="M 19.597,3.9975 C 16.6903,4.63508 14.0672,5.846 11.822,7.4946 l 7.2303,9.7715 c 0.91311,-0.66976 1.9659,-1.1671 3.1426,-1.4252 0.03132,-0.0069 0.06026,-0.01359 0.09157,-0.02009 l -2.597,-11.844 c -0.03058,0.00656 -0.061,0.013379 -0.09157,0.020086 z"
         inkscape:connector-curvature="0" />
      <path
         id="path3310"
         style="opacity:0.8;fill:url(#linearGradient3060)"
         d="M 14.558,5.8449 C 11.916,7.213 9.6953,9.0616 7.9532,11.235 l 9.513,7.5673 c 0.70865,-0.88326 1.5969,-1.6361 2.6667,-2.19 0.02847,-0.01474 0.05469,-0.02872 0.08325,-0.0431 l -5.575,-10.767 C 14.61332,5.816454 14.5857,5.83091 14.5579,5.845303 z"
         inkscape:connector-curvature="0" />
      <path
         id="path3312"
         style="opacity:0.8;fill:url(#linearGradient3062)"
         d="M 10.169,8.9335 C 7.9704,10.939 6.3042,13.299 5.184,15.85 l 11.147,4.847 c 0.4559,-1.0366 1.119,-1.9937 2.009,-2.8055 0.02369,-0.02161 0.0454,-0.0419 0.06926,-0.06318 l -8.171,-8.9577 C 10.21506,8.891592 10.19213,8.912704 10.169,8.933802 z"
         inkscape:connector-curvature="0" />
      <path
         id="path3314"
         style="opacity:0.8;fill:url(#linearGradient3064)"
         d="m 6.7812,12.969 c -0.016978,0.02626 -0.045621,0.06739 -0.0625,0.09375 -1.1482,1.7935 -1.9617,3.6813 -2.5,5.625 l 11.75,3.125 c 0.21551,-0.763 0.51805,-1.5148 0.96875,-2.2188 0.01729,-0.027 0.04496,-0.06702 0.0625,-0.09375 l -10.219,-6.531 z"
         inkscape:connector-curvature="0" />
    </g>
    <g
       id="g3642"
       style="opacity:0.8"
       transform="matrix(-1,0,0,-1,48,48)">
      <path
         id="path3644"
         style="opacity:0.8;fill:url(#linearGradient3709)"
         d="m 24,3.5 c -2.9758,0 -5.7974,0.62082 -8.3438,1.75 l 4.969,11.094 c 1.035,-0.459 2.17,-0.719 3.375,-0.719 0.03206,0 0.06178,-3.6e-4 0.09375,0 V 3.5 c -0.03127,-1.386e-4 -0.06245,0 -0.09375,0 z"
         transform="matrix(0.9996,0.028243,-0.028243,0.9996,0.69241,-0.67083)"
         inkscape:connector-curvature="0" />
      <path
         id="path3646"
         style="opacity:0.8;fill:url(#linearGradient3711)"
         d="M 19.597,3.9975 C 16.6903,4.63508 14.0672,5.846 11.822,7.4946 l 7.2303,9.7715 c 0.91311,-0.66976 1.9659,-1.1671 3.1426,-1.4252 0.03132,-0.0069 0.06026,-0.01359 0.09157,-0.02009 l -2.597,-11.844 c -0.03058,0.00656 -0.061,0.013379 -0.09157,0.020086 z"
         inkscape:connector-curvature="0" />
      <path
         id="path3648"
         style="opacity:0.8;fill:url(#linearGradient3713)"
         d="M 14.558,5.8449 C 11.916,7.213 9.6953,9.0616 7.9532,11.235 l 9.513,7.5673 c 0.70865,-0.88326 1.5969,-1.6361 2.6667,-2.19 0.02847,-0.01474 0.05469,-0.02872 0.08325,-0.0431 l -5.575,-10.767 C 14.61332,5.816454 14.5857,5.83091 14.5579,5.845303 z"
         inkscape:connector-curvature="0" />
      <path
         id="path3650"
         style="opacity:0.8;fill:url(#linearGradient3715)"
         d="M 10.169,8.9335 C 7.9704,10.939 6.3042,13.299 5.184,15.85 l 11.147,4.847 c 0.4559,-1.0366 1.119,-1.9937 2.009,-2.8055 0.02369,-0.02161 0.0454,-0.0419 0.06926,-0.06318 l -8.171,-8.9577 C 10.21506,8.891592 10.19213,8.912704 10.169,8.933802 z"
         inkscape:connector-curvature="0" />
      <path
         id="path3652"
         style="opacity:0.8;fill:url(#linearGradient3717)"
         d="m 6.7812,12.969 c -0.016978,0.02626 -0.045621,0.06739 -0.0625,0.09375 -1.1482,1.7935 -1.9617,3.6813 -2.5,5.625 l 11.75,3.125 c 0.21551,-0.763 0.51805,-1.5148 0.96875,-2.2188 0.01729,-0.027 0.04496,-0.06702 0.0625,-0.09375 l -10.219,-6.531 z"
         inkscape:connector-curvature="0" />
    </g>
    <path
       id="path2787"
       style="opacity:0.5;fill:none;stroke:url(#linearGradient3766)"
       d="M 24,4.5 C 13.191,4.5 4.5,13.1914 4.5,24 4.5,34.8086 13.1914,43.5 24,43.5 34.8086,43.5 43.5,34.809 43.5,24 43.5,13.191 34.809,4.5 24,4.5 z"
       inkscape:connector-curvature="0" />
    <path
       id="path3287"
       style="fill:none;stroke:url(#linearGradient3778)"
       d="M 24,3.5 C 12.637,3.5 3.5,12.637 3.5,24 3.5,35.363 12.637,44.5 24,44.5 35.363,44.5 44.5,35.363 44.5,24 44.5,12.637 35.363,3.5 24,3.5 z"
       inkscape:connector-curvature="0" />
    <path
       id="path3281"
       style="opacity:0.8;fill:none;stroke:url(#linearGradient3294)"
       d="m 24,15.5 c -4.7114,0 -8.5,3.7886 -8.5,8.5 0,4.7114 3.7886,8.5 8.5,8.5 4.7114,0 8.5,-3.7886 8.5,-8.5 0,-4.7114 -3.7886,-8.5 -8.5,-8.5 z"
       inkscape:connector-curvature="0" />
  </g>
  <g
     id="g576"
     style="opacity:0.2"
     transform="matrix(3.3837154,0,0,3.3676814,-49.653477,60.861455)">
    <path
       id="path577"
       d="M 45.882,9.821 C 45.725,9.243 45.384,8.687 44.897,8.213 44.131,7.47 43.066,6.975 41.725,6.742 41.448,6.695 41.152,6.657 40.846,6.633 40.584,6.612 40.336,6.613 40.096,6.613 H 39.903 L 38.126,6.611 H 36.35 L 35.831,6.614 C 35.447,6.618 35.084,6.622 34.725,6.607 L 34.64,6.603 C 34.431,6.59 34.144,6.573 33.836,6.669 L 33.834,6.67 c -0.368,0.115 -0.563,0.376 -0.657,0.501 0,0 -0.014,0.018 -0.014,0.019 L 33.02,7.362 32.946,7.45 31.8,8.813 31.485,9.185 c -0.269,0.316 -0.546,0.643 -0.813,0.979 0,0 -0.061,0.079 -0.112,0.147 C 30.487,10.081 30.413,9.85 30.331,9.62 L 30.148,9.113 C 30.017,8.754 29.893,8.415 29.789,8.073 L 29.748,7.931 C 29.694,7.748 29.634,7.54 29.542,7.328 l 0.004,0.008 -0.004,-0.01 C 29.324,6.764 28.908,6.64 28.679,6.616 L 28.412,6.611 28.382,6.613 H 17.591 V 7.424 H 17.41 V 7.422 C 17.407,7.437 17.403,7.452 17.399,7.467 17.035,7.377 16.716,7.299 16.716,7.299 L 16.395,8.602 16.38,8.653 c -0.035,0.115 -0.087,0.288 -0.087,0.497 0,0 0.032,0.073 0.043,0.097 -0.095,0.126 -0.161,0.277 -0.186,0.448 l 0.011,-0.056 -0.092,0.381 -0.624,2.607 -0.208,0.879 -0.063,0.269 -0.134,0.554 -0.022,0.071 c -0.041,0.132 -0.103,0.332 -0.103,0.565 v 0.9 h 3.114 l 1.515,0.004 0.235,10e-4 c 0.657,0.002 1.238,-0.039 1.776,-0.125 1.179,-0.188 2.247,-0.564 3.177,-1.116 0.899,-0.535 1.581,-1.144 2.038,-1.816 0.013,0.033 0.68,1.921 0.68,1.921 l 0.172,0.489 c 0.134,0.388 0.273,0.789 0.427,1.185 l 0.009,0.021 0.111,0.309 0.028,0.111 c 0.1,0.461 0.482,0.76 0.944,0.743 l 0.796,-0.478 c 0.241,-0.294 0.499,-0.576 0.772,-0.874 0,0 0.342,-0.376 0.343,-0.376 l 1.231,-1.39 0.65,-0.736 0.741,-0.837 c 0,0 0.122,-0.139 0.298,-0.336 -0.064,0.274 -0.126,0.535 -0.126,0.535 l -0.205,0.863 -0.054,0.206 c -0.057,0.21 -0.12,0.448 -0.145,0.716 l -0.087,0.98 h 3.647 l 0.448,0.002 c 1.021,0.005 2.078,0.011 3.144,-0.22 0.591,-0.127 1.168,-0.311 1.714,-0.546 0.606,-0.261 1.134,-0.595 1.569,-0.89 0.956,-0.642 1.673,-1.586 1.967,-2.59 0.18,-0.607 0.192,-1.231 0.038,-1.8 m -24.068,2.178 c -0.131,0.074 -0.287,0.133 -0.48,0.198 -0.268,0.091 -0.483,0.148 -0.679,0.181 -0.13,0.021 -0.266,0.033 -0.405,0.042 0.073,-0.307 0.156,-0.657 0.156,-0.657 0,0 0.361,-1.527 0.399,-1.687 0.205,0.004 0.407,0.012 0.603,0.033 0.192,0.021 1.156,0.15 1.21,0.655 0.003,0.03 0.004,0.059 0.004,0.088 0.001,0.477 -0.407,0.922 -0.808,1.147 m 17.325,0.383 c -0.122,0.018 -0.249,0.026 -0.375,0.033 0.023,-0.099 0.046,-0.198 0.07,-0.295 l 0.095,-0.399 0.071,-0.304 0.139,-0.585 0.048,-0.189 c 0.046,-0.176 0.092,-0.376 0.128,-0.584 0.394,0.015 0.771,0.056 1.123,0.156 0.301,0.085 0.503,0.191 0.601,0.314 0.064,0.083 0.099,0.197 0.099,0.325 v 0.03 c -0.017,0.418 -0.313,0.829 -0.791,1.1 -0.157,0.089 -0.338,0.167 -0.536,0.231 -0.262,0.085 -0.488,0.141 -0.672,0.167 m -9.957,5.211 c -0.015,0.001 -0.027,-0.001 -0.041,0 l -0.009,0.002 0.05,-0.002 z"
       inkscape:connector-curvature="0" />
  </g>
  <path
     id="path584"
     style="fill:#666666"
     d="m 64.827187,80.948742 c -1.245164,0.387254 -1.904952,1.266221 -2.223004,1.687151 0,0 -0.04735,0.06053 -0.04735,0.06388 l -0.483859,0.579216 -0.250396,0.296341 -3.877617,4.589953 -1.065819,1.252735 c -0.910183,1.064166 -1.847441,2.16534 -2.750764,3.296976 0,0 -0.206395,0.266036 -0.378956,0.495026 -0.247005,-0.774549 -0.497399,-1.552429 -0.77484,-2.330349 l -0.619204,-1.707361 c -0.44325,-1.208984 -0.862818,-2.347206 -1.214701,-3.502266 l -0.138746,-0.478187 c -0.182714,-0.616263 -0.385738,-1.316716 -0.697008,-2.030656 l 0.0134,0.02702 -0.0134,-0.03707 c -0.737622,-1.889208 -2.145202,-2.306767 -2.920041,-2.390957 l -0.90343,-0.0138 -0.101521,0.0079 H 9.866927 v 3.030743 C 8.3867979,83.43006 6.9079831,83.06469 6.9079831,83.06469 l -1.0861377,4.388075 -0.050755,0.175084 c -0.118426,0.387254 -0.2943697,0.973233 -0.2943697,1.673686 0,0 0.1082739,0.245826 0.1454949,0.326645 -0.3214437,0.424321 -0.5447642,0.932814 -0.6293505,1.508677 l 0.037221,-0.188491 -0.3112976,1.28304 -2.111346,8.779324 -0.7037907,2.95998 -0.2131665,0.90588 -0.4533963,1.869 -0.071055,0.24245 c -0.1387262,0.44452 -0.34851771,1.11467 -0.34851771,1.90269 v 3.0307 H 11.354006 l 5.126172,0.0138 h 0.795133 c 2.223006,0.01 4.188837,-0.13132 6.009361,-0.42098 3.98933,-0.6331 7.603042,-1.90265 10.749665,-3.7617 3.041742,-1.79829 5.349334,-3.84921 6.895702,-6.11554 0.04397,0.10785 2.300838,6.46908 2.300838,6.46908 l 0.581984,1.64676 c 0.453398,1.30999 0.92372,2.66034 1.444801,3.99406 l 0.03046,0.0707 0.375565,1.03723 0.09474,0.37379 c 0.345128,1.59961 1.712098,2.63012 3.332722,2.50547 l -0.169169,0.004 c 0,0 2.287301,-0.95975 2.524159,-1.39081 l 0.199637,-0.22227 c 0.81545,-0.99006 1.688414,-1.93972 2.612134,-2.94315 0,0 1.157187,-1.2696 1.160578,-1.2696 l 4.16518,-4.68091 2.199323,-2.47852 2.507229,-2.81857 c 0,0 0.412786,-0.46474 1.008308,-1.13151 -0.216538,0.92272 -0.426324,1.7983 -0.426324,1.7983 l -0.693645,2.90952 -0.182714,0.69036 c -0.192847,0.70717 -0.40603,1.51205 -0.490616,2.41118 l -0.29437,3.30354 h 12.339928 l 1.515852,0.008 c 3.454685,0.0158 7.031073,0.0337 10.637951,-0.74087 1.999712,-0.4277 3.952006,-1.05068 5.799604,-1.8387 2.050468,-0.87555 3.836875,-2.0037 5.308856,-2.99391 3.234678,-2.16532 5.660818,-5.34092 6.655458,-8.722006 0.60566,-2.044102 0.64288,-4.14205 0.1218,-6.05825 -0.53122,-1.946446 -1.68501,-3.818738 -3.33271,-5.415055 -2.591847,-2.5021 -6.195465,-4.16569 -10.732845,-4.950314 -0.937258,-0.158324 -1.93881,-0.286246 -2.974192,-0.370435 -0.886498,-0.07078 -1.725632,-0.06744 -2.537694,-0.06408 h -0.653036 l -6.012516,-0.006 h -6.005944 l -1.756074,0.006 c -1.299284,0.0138 -2.527547,0.02366 -3.742246,-0.02702 l -0.283881,-0.0078 c -0.707183,-0.04377 -1.67827,-0.10095 -2.720537,0.222266 l -0.0069,0.0078 M 12.166434,94.467962 h 1.833904 c -0.250386,1.054052 -1.955711,8.227058 -1.955711,8.227058 0,0 -0.558301,2.38761 -0.737619,3.17239 H 7.7237863 c 0.057521,-0.23573 0.1150426,-0.47819 0.1150426,-0.47819 l 0.7071822,-2.95685 c 0,0 1.3906536,-5.795657 1.9117349,-7.964191 h 1.708707 m 7.230842,3.647084 c 0,0 1.221481,-5.142197 1.350043,-5.681051 0.693645,0.0138 1.377116,0.04042 2.040296,0.111202 0.649642,0.07078 3.911526,0.50512 4.094209,2.205757 0.01006,0.0976 0.0136,0.198705 0.0136,0.296342 0,1.606333 -1.377116,3.104837 -2.733941,3.859215 -0.443251,0.25259 -0.971087,0.447903 -1.62412,0.670149 -0.906792,0.306475 -1.634267,0.498393 -2.297447,0.609533 -0.439859,0.0708 -0.900037,0.11121 -1.370361,0.14137 0.250387,-1.033857 0.527836,-2.212497 0.527836,-2.212497 M 34.251275,86.83729 h 2.135055 v 2.39433 c 0,0.99007 0.240249,1.774712 0.44664,2.428043 0.135336,0.431045 0.22332,0.90251 0.274077,1.478353 0.03383,0.316571 0.04736,0.633121 0.04736,0.936185 0,1.05068 -0.175952,1.99698 -0.527836,2.828844 -0.839136,1.983494 -2.811748,3.936735 -5.708132,5.647395 -1.366971,0.8116 -2.876145,1.46828 -4.483232,1.98686 0.236852,-0.1112 0.470323,-0.20542 0.707181,-0.33676 3.633953,-2.02728 5.850334,-5.54307 5.850334,-9.159928 0,-0.309827 -0.01676,-0.623026 -0.05075,-0.936185 -0.392492,-3.643673 -3.160289,-6.270362 -7.53181,-7.270528 4.090794,0.004 8.841348,0.004 8.841348,0.004 m 21.624447,13.605046 0.842525,-1.091117 0.565056,-0.7139 0.707181,-0.932814 0.913576,-1.195498 c 0.845888,-1.054031 1.756071,-2.118197 2.629061,-3.148707 l 1.082748,-1.276316 3.877617,-4.583388 0.216538,-0.252569 c 0,0 0.186105,-0.229009 0.372202,-0.454626 0.03722,0 0.494007,0.03036 0.494007,0.03036 0.774839,0.03371 1.54968,0.04377 2.317765,0.04377 -0.747765,0.42093 -1.21809,1.006909 -1.465094,1.313344 0,0 -0.07104,0.08419 -0.07104,0.08755 -0.01676,0.02031 -3.068817,3.418134 -3.068817,3.418134 l -5.569345,6.246998 -2.497083,2.815161 -2.21625,2.492 -4.1247,4.63044 c 0,0 -0.669963,0.72738 -0.930477,1.017 -0.128592,-0.36706 -0.26054,-0.72403 -0.385738,-1.10119 l -0.595522,-1.68378 -4.067134,-11.439673 -0.886499,-2.465072 c 0,0 -0.950795,-2.643508 -0.981234,-2.727618 -0.0069,-0.02031 -0.02025,-0.06724 -0.02025,-0.06724 -0.375565,-1.320107 -0.977867,-2.094635 -1.613973,-2.556005 h 3.728841 c 0.0034,0.02366 0.182714,0.60954 0.182714,0.60954 0.399275,1.316716 0.869572,2.589661 1.322996,3.822148 l 0.595521,1.640009 c 0.622568,1.751133 1.167333,3.579792 1.695169,5.354328 0.182714,0.612891 0.355274,1.266222 0.40603,1.89593 0.125201,1.70401 1.539534,3.04095 3.221272,3.04095 l 2.060614,-0.22563 0.859429,-1.90269 c 0.08458,-0.17844 0.209783,-0.37716 0.402639,-0.63983 h -0.0069 0.0069 m 14.925094,3.57638 1.4008,-5.876363 0.54813,-2.374139 0.226711,-1.010281 c 0,0 0.03046,-0.127961 0.07445,-0.306455 0.524445,0.0078 1.21809,0.0138 1.21809,0.0138 h 2.361741 c -0.128592,0.548911 -0.260541,1.104564 -0.260541,1.104564 l -0.230076,1.003537 -0.321444,1.333574 c -0.378956,1.582733 -0.77484,3.226252 -1.113211,4.876202 0,0 -0.473716,2.29667 -0.636106,3.088 h -3.711758 c 0.203002,-0.86211 0.443251,-1.85218 0.443251,-1.85218 m 10.94917,-4.701139 0.321444,-1.34702 0.240221,-1.020376 0.470325,-1.970026 0.162406,-0.636473 c 0.155643,-0.592682 0.311298,-1.266221 0.433106,-1.966674 1.333139,0.04713 2.608742,0.188491 3.799812,0.525349 1.018453,0.282875 1.701952,0.639825 2.033542,1.057403 0.216538,0.279523 0.33498,0.660054 0.33498,1.09447 v 0.0976 c -0.05751,1.407629 -1.059063,2.791757 -2.676377,3.7044 -0.531227,0.299692 -1.14365,0.562378 -1.813611,0.7779 -0.88311,0.289617 -1.644412,0.481575 -2.270399,0.565765 -0.412786,0.0605 -0.842499,0.0875 -1.268847,0.11121 0.07443,-0.333373 0.152272,-0.670153 0.233467,-0.993428 m 8.117185,4.818898 c 3.464674,-1.95318 5.620074,-5.219756 5.765695,-8.73884 0.0034,-0.114553 0.0069,-0.225637 0.0069,-0.343483 0,-1.791571 -0.578594,-3.502265 -1.644412,-4.849404 -1.16397,-1.468258 -2.849071,-2.495376 -5.156664,-3.145296 -0.240222,-0.06743 -0.470324,-0.10785 -0.70718,-0.161676 0.822205,0.07078 1.613973,0.165028 2.354984,0.29297 3.299078,0.56914 5.829831,1.687152 7.518404,3.32379 0.872962,0.8419 1.461703,1.757856 1.705342,2.656914 0.09813,0.367085 0.14888,0.761082 0.14888,1.168546 0,0.518607 -0.0812,1.050679 -0.236858,1.596239 -0.602276,2.04075 -2.135055,4.007464 -4.209075,5.3948 -1.238382,0.83181 -2.727108,1.77135 -4.313956,2.4516 -0.66996,0.28961 -1.370361,0.54218 -2.074152,0.77114 0.277469,-0.13801 0.575203,-0.26938 0.842526,-0.41755 z"
     inkscape:connector-curvature="0" />
  <path
     id="path585"
     style="fill:#ffffff"
     d="M 9.2538734,83.487908 H 33.635918 45.772925 c 0.22332,0 0.450004,-0.03036 0.676716,-0.0079 0.270687,0.02702 0.351883,0.363674 0.446641,0.585939 0.307906,0.700453 0.494008,1.45144 0.717328,2.182198 0.548128,1.798275 1.248555,3.559561 1.877879,5.334353 0.642888,1.818485 1.194408,3.653927 1.742562,5.495992 0.250395,0.8419 0.456787,1.666943 0.521081,2.535775 0.01025,0.111202 0.104912,0.229009 0.186105,0.229009 0.05414,-0.158324 0.121809,-0.309827 0.19624,-0.457997 0.182714,-0.35695 0.406031,-0.697082 0.636105,-1.023747 0.466934,-0.653291 0.988016,-1.262811 1.482023,-1.902675 0.554911,-0.71731 1.082747,-1.458163 1.647804,-2.16873 1.22148,-1.525496 2.50723,-2.993912 3.765904,-4.489023 1.292531,-1.528887 2.585061,-3.057774 3.877619,-4.586523 0.277468,-0.330017 0.568446,-0.649939 0.828987,-0.993442 0.206392,-0.266037 0.412786,-0.582588 0.751156,-0.690359 0.615814,-0.19204 1.336506,-0.0976 1.965857,-0.07078 1.871124,0.08084 3.755654,0.01578 5.630326,0.01578 h 6.005945 c 2.003076,0 4.006154,0.004 6.005944,0.0098 0.984623,0.004 1.972637,-0.02701 2.957366,0.05048 0.906792,0.07413 1.803439,0.181788 2.700033,0.340132 3.302492,0.569141 6.679112,1.774714 9.122074,4.135484 1.14704,1.114661 2.09105,2.481891 2.51401,4.034279 0.39928,1.451421 0.32144,2.983659 -0.10152,4.414889 -0.85266,2.892706 -2.947113,5.394802 -5.430555,7.061822 -1.54629,1.03387 -3.099309,1.98687 -4.811538,2.72449 -1.688414,0.72066 -3.444434,1.27632 -5.237884,1.6602 -3.786144,0.81497 -7.663763,0.66679 -11.510889,0.66679 h -9.010625 c 0.0812,-0.90588 0.389104,-1.79156 0.602278,-2.67375 0.22671,-0.96649 0.460178,-1.93636 0.690253,-2.90295 0.466934,-1.95991 0.933866,-3.919948 1.404191,-5.879781 0.263931,-1.114661 0.514299,-2.232712 0.768085,-3.354016 0.118419,-0.535425 0.247003,-1.060775 0.389102,-1.592868 0.07782,-0.279522 0.142118,-0.690358 0.338371,-0.919346 0.09474,-0.117906 0.324835,-0.131314 0.463542,-0.144721 0.304518,-0.03371 0.615814,-0.03371 0.920331,-0.02701 0.720692,0.01577 1.438018,0.03371 2.158739,0.03371 h 6.181792 c -0.1252,0.959747 -0.40603,1.885837 -0.636106,2.821982 -0.247004,0.996794 -0.477079,2.007074 -0.713937,3.013884 -0.487226,2.034027 -0.991379,4.067939 -1.417729,6.118979 1.847441,0 3.691518,0.0675 5.518615,-0.18849 0.930475,-0.13131 1.904952,-0.39402 2.794923,-0.69036 0.822206,-0.26603 1.620729,-0.60281 2.368521,-1.02375 2.280547,-1.286388 4.111032,-3.522492 4.219328,-6.219904 0.04401,-1.141592 -0.267297,-2.289949 -0.988014,-3.192359 -0.88311,-1.118011 -2.25008,-1.72418 -3.596628,-2.101359 -3.359796,-0.949652 -6.983758,-0.602796 -10.438445,-0.585939 -1.001552,0.004 -1.999686,0.006 -3.004681,0.0138 -0.48047,0 -0.96094,0.004 -1.444801,0.004 -0.490617,0.004 -1.042136,-0.06388 -1.525996,0.01577 -0.412785,0.06744 -0.697011,0.559006 -0.954161,0.845252 -0.351881,0.394017 -0.7004,0.781291 -1.052308,1.175269 -0.676716,0.754339 -1.350043,1.505306 -2.03015,2.256292 -2.700033,3.003888 -5.373255,6.031437 -8.05962,9.048734 -2.118127,2.38088 -4.215909,4.77868 -6.354488,7.14253 -1.29253,1.42783 -2.635897,2.82541 -3.863949,4.31053 -0.118418,0.14471 -0.29437,0.30982 -0.362055,0.49167 -0.0034,0.01 -0.0034,0.0138 -0.0034,0.0236 -0.135335,0 -0.14888,0.0404 -0.179323,-0.10784 -0.04736,-0.21215 -0.101521,-0.42094 -0.169169,-0.62975 -0.135335,-0.44786 -0.307906,-0.88565 -0.480471,-1.32346 -0.717326,-1.8286 -1.33314,-3.7044 -1.992929,-5.5499 -1.353434,-3.81217 -2.710284,-7.627495 -4.063718,-11.439646 -0.419568,-1.175309 -0.84928,-2.350578 -1.265456,-3.522515 -0.209784,-0.56912 -0.412786,-1.134869 -0.619205,-1.70399 -0.108264,-0.303084 -0.263905,-1.208984 -0.717327,-1.208984 0,0.535445 0.14888,1.017023 0.314687,1.528907 0.213175,0.686986 0.331591,1.373953 0.395885,2.091264 0.165777,1.76797 -0.0134,3.579791 -0.710546,5.229737 -1.299286,3.064597 -4.148358,5.415037 -6.956687,7.078637 -2.96052,1.75114 -6.286671,2.83224 -9.673803,3.37084 -1.833904,0.29297 -3.664443,0.39065 -5.515197,0.38054 -1.979392,-0.004 -3.955421,-0.0138 -5.93471,-0.0138 H 4.6928099 3.2446439 c 0,-0.45128 0.206398,-0.93955 0.3214438,-1.37733 0.2503864,-0.93956 0.4601779,-1.89258 0.683472,-2.83882 0.9406482,-3.90969 1.871124,-7.822794 2.8185803,-11.729328 0.101509,-0.431045 0.2063977,-0.858739 0.3112975,-1.286412 0.037219,-0.158324 -0.00339,-0.23236 0.1759454,-0.23236 h 0.3620557 0.724083 2.9063734 5.684474 c -0.950794,3.980393 -1.898198,7.971039 -2.845655,11.95143 1.911735,0 3.84371,0.0976 5.728371,-0.2155 0.947404,-0.15162 1.874515,-0.42095 2.777838,-0.7274 0.73762,-0.2492 1.458339,-0.51189 2.135055,-0.88903 2.524157,-1.404257 4.584694,-4.128642 4.263223,-7.125688 -0.355272,-3.333786 -3.897855,-4.589952 -6.794241,-4.899858 -1.752707,-0.19204 -3.52224,-0.14472 -5.281783,-0.141369 -2.013222,0.0079 -4.022974,0 -6.036434,0 H 8.8745149 8.390654 c -0.1353428,0 -0.4872257,0.07078 -0.4872257,-0.07413 0,-0.360322 0.1691806,-0.771157 0.2571524,-1.118032 0.3620547,-1.464886 0.724083,-2.926343 1.0861377,-4.391229"
     inkscape:connector-curvature="0" />
  <path
     id="path5593"
     style="fill:url(#linearGradient7559);fill-rule:evenodd;stroke:#486824;stroke-width:2.6285367;stroke-linejoin:round"
     d="m 75.725102,108.28552 v -7.88561 h 7.885612 v 7.88561 h 7.885609 v 7.88561 h -7.885609 v 7.88561 h -7.885612 v -7.88561 H 67.83949 v -7.88561 h 7.885612 z"
     inkscape:connector-curvature="0" />
  <path
     id="text6701"
     style="fill:url(#linearGradient3921);stroke:#486824;stroke-width:5.2570734"
     d="m 104.16061,125.371 h -5.416097 c 1.835227,-8.68862 3.670487,-17.37725 5.505737,-26.065878 4.36547,0.02189 8.73279,-0.04633 13.09721,0.03884 2.25349,0.0627 4.79419,0.723898 5.96625,2.823838 1.58671,2.69925 1.36531,6.38024 -0.49766,8.89893 -1.51509,2.04457 -4.10025,2.93185 -6.55032,3.22731 2.32531,2.20465 3.43314,5.31042 4.77159,8.13636 0.14906,0.84723 1.41374,2.46929 0.95326,2.94082 h -5.54542 c -1.02316,-2.91242 -2.15078,-5.81065 -3.59795,-8.54196 -0.67902,-1.31829 -1.97841,-2.31544 -3.52408,-2.23247 -0.96114,-0.0345 -1.92339,-0.0118 -2.88507,-0.0178 -0.7592,3.59768 -1.5184,7.19509 -2.27758,10.79277 z m 3.10247,-14.70429 c 2.88402,-0.0542 5.82747,0.20996 8.64394,-0.51561 2.15269,-0.65049 3.9068,-3.35296 2.59337,-5.42978 -1.08501,-1.3327 -2.98786,-0.98467 -4.51952,-1.06016 -1.7491,0 -3.49831,0 -5.24733,0 -0.4902,2.33514 -0.98037,4.67039 -1.47057,7.00532 z"
     inkscape:connector-curvature="0" />
  <path
     id="text6713"
     style="fill:url(#linearGradient3918)"
     d="m 104.16061,125.371 h -5.416097 c 1.835227,-8.68862 3.670487,-17.37725 5.505737,-26.065878 4.30949,0.01775 8.62003,-0.03588 12.92872,0.02977 2.15088,0.08498 4.58075,0.542109 5.869,2.44001 1.68776,2.36361 1.67587,5.66581 0.44103,8.22418 -1.27,2.62046 -4.18909,3.92939 -6.97061,4.26112 -0.34933,0.24451 1.02928,1.13933 1.2372,1.75074 1.87798,2.92345 3.1913,6.15839 4.50031,9.36022 h -5.81063 c -0.96344,-2.78364 -2.06945,-5.52993 -3.38057,-8.17028 -0.65114,-1.20277 -1.64094,-2.49163 -3.14268,-2.54978 -1.15676,-0.12322 -2.32241,-0.0545 -3.4836,-0.0725 -0.75919,3.59769 -1.5184,7.19511 -2.27757,10.79279 z m 3.10247,-14.70429 c 2.82041,-0.0461 5.68736,0.18317 8.45547,-0.45318 2.1098,-0.5641 3.865,-2.9466 3.01415,-5.10042 -0.62515,-1.43632 -2.41652,-1.43135 -3.75355,-1.45022 -2.08186,-0.004 -4.16387,-6.1e-4 -6.24567,-0.002 -0.49019,2.33514 -0.98036,4.67037 -1.47056,7.0053 z"
     inkscape:connector-curvature="0" />
</svg>
