<?xml version="1.0" encoding="UTF-8" standalone="no"?>
<!-- Created with Inkscape (http://www.inkscape.org/) -->

<svg
   xmlns:dc="http://purl.org/dc/elements/1.1/"
   xmlns:cc="http://creativecommons.org/ns#"
   xmlns:rdf="http://www.w3.org/1999/02/22-rdf-syntax-ns#"
   xmlns:svg="http://www.w3.org/2000/svg"
   xmlns="http://www.w3.org/2000/svg"
   xmlns:xlink="http://www.w3.org/1999/xlink"
   xmlns:sodipodi="http://sodipodi.sourceforge.net/DTD/sodipodi-0.dtd"
   xmlns:inkscape="http://www.inkscape.org/namespaces/inkscape"
   id="svg3795"
   height="128"
   width="128"
   version="1.0"
   inkscape:version="0.48.2 r9819"
   sodipodi:docname="gnome-dev-disc-dvdr.svg">
  <metadata
     id="metadata77">
    <rdf:RDF>
      <cc:Work
         rdf:about="">
        <dc:format>image/svg+xml</dc:format>
        <dc:type
           rdf:resource="http://purl.org/dc/dcmitype/StillImage" />
      </cc:Work>
    </rdf:RDF>
  </metadata>
  <sodipodi:namedview
     pagecolor="#ffffff"
     bordercolor="#666666"
     borderopacity="1"
     objecttolerance="10"
     gridtolerance="10"
     guidetolerance="10"
     inkscape:pageopacity="0"
     inkscape:pageshadow="2"
     inkscape:window-width="1317"
     inkscape:window-height="869"
     id="namedview75"
     showgrid="false"
     inkscape:zoom="4.9166667"
     inkscape:cx="24"
     inkscape:cy="56.542373"
     inkscape:window-x="96"
     inkscape:window-y="145"
     inkscape:window-maximized="0"
     inkscape:current-layer="svg3795" />
  <defs
     id="defs3797">
    <linearGradient
       id="linearGradient7559"
       y2="26.926001"
       xlink:href="#linearGradient7495"
       gradientUnits="userSpaceOnUse"
       x2="22.045"
       gradientTransform="matrix(1.2920701,0,0,1.2829297,50.234471,81.687398)"
       y1="18.862"
       x1="23.457001" />
    <linearGradient
       id="linearGradient3892"
       y2="58.064999"
       xlink:href="#linearGradient7495"
       gradientUnits="userSpaceOnUse"
       x2="29.436001"
       gradientTransform="matrix(3.7019613,0,0,3.6701688,3.1542293,-88.76495)"
       y1="51.644001"
       x1="29.502001" />
    <linearGradient
       id="linearGradient7495">
      <stop
         id="stop7497"
         style="stop-color:#ffb8b8"
         offset="0" />
      <stop
         id="stop7499"
         style="stop-color:#f03e3e"
         offset="1" />
    </linearGradient>
    <linearGradient
       id="linearGradient3895"
       y2="58.066002"
       xlink:href="#linearGradient7495"
       gradientUnits="userSpaceOnUse"
       x2="29.502001"
       gradientTransform="matrix(3.7019611,0,0,3.6701686,3.1542293,-88.764946)"
       y1="50.907001"
       x1="29.502001" />
    <radialGradient
       id="radialGradient2464"
       gradientUnits="userSpaceOnUse"
       cy="41.636002"
       cx="23.334999"
       gradientTransform="matrix(0.97227,0,0,0.28724,1.3125,27.541)"
       r="22.627001">
      <stop
         id="stop23421"
         offset="0" />
      <stop
         id="stop23423"
         style="stop-opacity:0"
         offset="1" />
    </radialGradient>
    <linearGradient
       id="linearGradient3258"
       y2="14.203"
       gradientUnits="userSpaceOnUse"
       x2="35.390999"
       gradientTransform="matrix(0,1.1714,-1.1714,0,51.06,-4.1145)"
       y1="32.416"
       x1="12.274">
      <stop
         id="stop3265"
         style="stop-color:#dedbde"
         offset="0" />
      <stop
         id="stop3267"
         style="stop-color:#e6e6e6"
         offset=".5" />
      <stop
         id="stop3269"
         style="stop-color:#d2d2d2"
         offset="1" />
    </linearGradient>
    <linearGradient
       id="linearGradient3434"
       y2="32.508999"
       gradientUnits="userSpaceOnUse"
       x2="21.448"
       gradientTransform="matrix(0.9375,0,0,0.9375,1.5,1.5)"
       y1="15.5"
       x1="21.448">
      <stop
         id="stop3430"
         style="stop-color:#aaa"
         offset="0" />
      <stop
         id="stop3432"
         style="stop-color:#d4d4d4"
         offset="1" />
    </linearGradient>
    <linearGradient
       id="linearGradient3717"
       y2="20.613001"
       xlink:href="#linearGradient3519"
       spreadMethod="reflect"
       gradientUnits="userSpaceOnUse"
       x2="9.7298002"
       y1="17.886"
       x1="10.609" />
    <linearGradient
       id="linearGradient3715"
       y2="13.462"
       xlink:href="#linearGradient3511"
       spreadMethod="reflect"
       gradientUnits="userSpaceOnUse"
       x2="14.609"
       y1="16.188"
       x1="12.372" />
    <linearGradient
       id="linearGradient3713"
       y2="10.732"
       xlink:href="#linearGradient3503"
       spreadMethod="reflect"
       gradientUnits="userSpaceOnUse"
       x2="16.993999"
       y1="13.046"
       x1="14.085" />
    <linearGradient
       id="linearGradient3711"
       y2="9.7955999"
       xlink:href="#linearGradient3495"
       spreadMethod="reflect"
       gradientUnits="userSpaceOnUse"
       x2="21.047001"
       y1="11.2"
       x1="17.495001" />
    <linearGradient
       id="linearGradient3709"
       y2="9.8621998"
       xlink:href="#linearGradient3487"
       spreadMethod="reflect"
       gradientUnits="userSpaceOnUse"
       x2="24.274"
       y1="10.775"
       x1="20.58" />
    <linearGradient
       id="linearGradient3519">
      <stop
         id="stop3521"
         style="stop-color:#fcd9cd"
         offset="0" />
      <stop
         id="stop3523"
         style="stop-color:#fcd9cd;stop-opacity:0"
         offset="1" />
    </linearGradient>
    <linearGradient
       id="linearGradient3511">
      <stop
         id="stop3513"
         style="stop-color:#ebeec7"
         offset="0" />
      <stop
         id="stop3515"
         style="stop-color:#ebeec7;stop-opacity:0"
         offset="1" />
    </linearGradient>
    <linearGradient
       id="linearGradient3503">
      <stop
         id="stop3505"
         style="stop-color:#c4ebdd"
         offset="0" />
      <stop
         id="stop3507"
         style="stop-color:#c4ebdd;stop-opacity:0"
         offset="1" />
    </linearGradient>
    <linearGradient
       id="linearGradient3495">
      <stop
         id="stop3497"
         style="stop-color:#c1cbe4"
         offset="0" />
      <stop
         id="stop3499"
         style="stop-color:#c1cbe4;stop-opacity:0"
         offset="1" />
    </linearGradient>
    <linearGradient
       id="linearGradient3487">
      <stop
         id="stop3489"
         style="stop-color:#e6cde2"
         offset="0" />
      <stop
         id="stop3491"
         style="stop-color:#e6cde2;stop-opacity:0"
         offset="1" />
    </linearGradient>
    <linearGradient
       id="linearGradient3766"
       y2="54.698002"
       xlink:href="#linearGradient6036"
       gradientUnits="userSpaceOnUse"
       x2="48.799"
       gradientTransform="matrix(0.98497,0,0,0.98497,0.019022,-0.62415)"
       y1="3.6099999"
       x1="10.502" />
    <linearGradient
       id="linearGradient3778"
       y2="45.175999"
       gradientUnits="userSpaceOnUse"
       x2="20.018999"
       y1="3"
       x1="20.018999">
      <stop
         id="stop3774"
         style="stop-color:#b4b4b4"
         offset="0" />
      <stop
         id="stop3776"
         style="stop-color:#969696"
         offset="1" />
    </linearGradient>
    <linearGradient
       id="linearGradient6036">
      <stop
         id="stop6038"
         style="stop-color:#fff"
         offset="0" />
      <stop
         id="stop6040"
         style="stop-color:#fff;stop-opacity:0"
         offset="1" />
    </linearGradient>
    <linearGradient
       id="linearGradient3294"
       y2="45.962002"
       xlink:href="#linearGradient6036"
       gradientUnits="userSpaceOnUse"
       x2="18.202999"
       gradientTransform="matrix(0.42934,0,0,0.42934,13.547,13.266)"
       y1="4.0377998"
       x1="18.775999" />
    <linearGradient
       inkscape:collect="always"
       xlink:href="#linearGradient3487"
       id="linearGradient3054"
       gradientUnits="userSpaceOnUse"
       spreadMethod="reflect"
       x1="20.58"
       y1="10.775"
       x2="24.274"
       y2="9.8621998" />
    <linearGradient
       inkscape:collect="always"
       xlink:href="#linearGradient3495"
       id="linearGradient3056"
       gradientUnits="userSpaceOnUse"
       spreadMethod="reflect"
       x1="17.495001"
       y1="11.2"
       x2="21.047001"
       y2="9.7955999" />
    <linearGradient
       inkscape:collect="always"
       xlink:href="#linearGradient3503"
       id="linearGradient3058"
       gradientUnits="userSpaceOnUse"
       spreadMethod="reflect"
       x1="14.085"
       y1="13.046"
       x2="16.993999"
       y2="10.732" />
    <linearGradient
       inkscape:collect="always"
       xlink:href="#linearGradient3511"
       id="linearGradient3060"
       gradientUnits="userSpaceOnUse"
       spreadMethod="reflect"
       x1="12.372"
       y1="16.188"
       x2="14.609"
       y2="13.462" />
    <linearGradient
       inkscape:collect="always"
       xlink:href="#linearGradient3519"
       id="linearGradient3062"
       gradientUnits="userSpaceOnUse"
       spreadMethod="reflect"
       x1="10.609"
       y1="17.886"
       x2="9.7298002"
       y2="20.613001" />
  </defs>
  <g
     id="layer1"
     transform="matrix(2.6493675,0,0,2.6493675,0.5111408,2.4792694)">
    <path
       id="path23417"
       style="opacity:0.3;fill:url(#radialGradient2464);fill-rule:evenodd"
       d="M 46,39.5 C 46.0011,43.0898 36.1511,46 24,46 11.8489,46 1.999,43.0898 2,39.5 1.9989,35.91 11.849,33 24,33 c 12.151,0 22.001,2.9102 22,6.5 z"
       inkscape:connector-curvature="0" />
    <path
       id="path2781"
       style="fill:url(#linearGradient3258)"
       d="M 44.5,24 C 44.5,12.637 35.363,3.5 24,3.5 12.637,3.5 3.5,12.637 3.5,24 c -2e-6,11.363 9.137,20.5 20.5,20.5 11.363,-2e-6 20.5,-9.137 20.5,-20.5 z M 32,24 c 0,4.623 -3.377,8 -8,8 -4.623,0 -8,-3.377 -8,-8 0,-4.623 3.377,-8 8,-8 4.623,0 8,3.377 8,8 z"
       inkscape:connector-curvature="0" />
    <path
       id="path2474"
       style="opacity:0.5;fill:#ffffff"
       d="m 24,16 c -4.416,0 -8,3.584 -8,8 0,4.416 3.584,8 8,8 4.416,0 8,-3.584 8,-8 0,-4.416 -3.584,-8 -8,-8 z m 0,4 c 2.208,0 4,1.792 4,4 0,2.208 -1.792,4 -4,4 -2.208,0 -4,-1.792 -4,-4 0,-2.208 1.792,-4 4,-4 z"
       inkscape:connector-curvature="0" />
    <path
       id="path3418"
       style="fill:none;stroke:url(#linearGradient3434);stroke-linejoin:round"
       d="m 24,16.5 c -4.14,0 -7.5,3.36 -7.5,7.5 0,4.14 3.36,7.5 7.5,7.5 4.14,0 7.5,-3.36 7.5,-7.5 0,-4.14 -3.36,-7.5 -7.5,-7.5 z m 0,3.75 c 2.07,0 3.75,1.68 3.75,3.75 0,2.07 -1.68,3.75 -3.75,3.75 -2.07,0 -3.75,-1.68 -3.75,-3.75 0,-2.07 1.68,-3.75 3.75,-3.75 z"
       inkscape:connector-curvature="0" />
    <g
       id="g3527">
      <path
         id="path3296"
         style="opacity:0.8;fill:url(#linearGradient3054)"
         d="m 24,3.5 c -2.9758,0 -5.7974,0.62082 -8.3438,1.75 l 4.969,11.094 c 1.035,-0.459 2.17,-0.719 3.375,-0.719 0.03206,0 0.06178,-3.6e-4 0.09375,0 V 3.5 c -0.03127,-1.386e-4 -0.06245,0 -0.09375,0 z"
         transform="matrix(0.9996,0.028243,-0.028243,0.9996,0.69241,-0.67083)"
         inkscape:connector-curvature="0" />
      <path
         id="path3308"
         style="opacity:0.8;fill:url(#linearGradient3056)"
         d="M 19.597,3.9975 C 16.6903,4.63508 14.0672,5.846 11.822,7.4946 l 7.2303,9.7715 c 0.91311,-0.66976 1.9659,-1.1671 3.1426,-1.4252 0.03132,-0.0069 0.06026,-0.01359 0.09157,-0.02009 l -2.597,-11.844 c -0.03058,0.00656 -0.061,0.013379 -0.09157,0.020086 z"
         inkscape:connector-curvature="0" />
      <path
         id="path3310"
         style="opacity:0.8;fill:url(#linearGradient3058)"
         d="M 14.558,5.8449 C 11.916,7.213 9.6953,9.0616 7.9532,11.235 l 9.513,7.5673 c 0.70865,-0.88326 1.5969,-1.6361 2.6667,-2.19 0.02847,-0.01474 0.05469,-0.02872 0.08325,-0.0431 l -5.575,-10.767 C 14.61332,5.816454 14.5857,5.83091 14.5579,5.845303 z"
         inkscape:connector-curvature="0" />
      <path
         id="path3312"
         style="opacity:0.8;fill:url(#linearGradient3060)"
         d="M 10.169,8.9335 C 7.9704,10.939 6.3042,13.299 5.184,15.85 l 11.147,4.847 c 0.4559,-1.0366 1.119,-1.9937 2.009,-2.8055 0.02369,-0.02161 0.0454,-0.0419 0.06926,-0.06318 l -8.171,-8.9577 C 10.21506,8.891592 10.19213,8.912704 10.169,8.933802 z"
         inkscape:connector-curvature="0" />
      <path
         id="path3314"
         style="opacity:0.8;fill:url(#linearGradient3062)"
         d="m 6.7812,12.969 c -0.016978,0.02626 -0.045621,0.06739 -0.0625,0.09375 -1.1482,1.7935 -1.9617,3.6813 -2.5,5.625 l 11.75,3.125 c 0.21551,-0.763 0.51805,-1.5148 0.96875,-2.2188 0.01729,-0.027 0.04496,-0.06702 0.0625,-0.09375 l -10.219,-6.531 z"
         inkscape:connector-curvature="0" />
    </g>
    <g
       id="g3642"
       style="opacity:0.8"
       transform="matrix(-1,0,0,-1,48,48)">
      <path
         id="path3644"
         style="opacity:0.8;fill:url(#linearGradient3709)"
         d="m 24,3.5 c -2.9758,0 -5.7974,0.62082 -8.3438,1.75 l 4.969,11.094 c 1.035,-0.459 2.17,-0.719 3.375,-0.719 0.03206,0 0.06178,-3.6e-4 0.09375,0 V 3.5 c -0.03127,-1.386e-4 -0.06245,0 -0.09375,0 z"
         transform="matrix(0.9996,0.028243,-0.028243,0.9996,0.69241,-0.67083)"
         inkscape:connector-curvature="0" />
      <path
         id="path3646"
         style="opacity:0.8;fill:url(#linearGradient3711)"
         d="M 19.597,3.9975 C 16.6903,4.63508 14.0672,5.846 11.822,7.4946 l 7.2303,9.7715 c 0.91311,-0.66976 1.9659,-1.1671 3.1426,-1.4252 0.03132,-0.0069 0.06026,-0.01359 0.09157,-0.02009 l -2.597,-11.844 c -0.03058,0.00656 -0.061,0.013379 -0.09157,0.020086 z"
         inkscape:connector-curvature="0" />
      <path
         id="path3648"
         style="opacity:0.8;fill:url(#linearGradient3713)"
         d="M 14.558,5.8449 C 11.916,7.213 9.6953,9.0616 7.9532,11.235 l 9.513,7.5673 c 0.70865,-0.88326 1.5969,-1.6361 2.6667,-2.19 0.02847,-0.01474 0.05469,-0.02872 0.08325,-0.0431 l -5.575,-10.767 C 14.61332,5.816454 14.5857,5.83091 14.5579,5.845303 z"
         inkscape:connector-curvature="0" />
      <path
         id="path3650"
         style="opacity:0.8;fill:url(#linearGradient3715)"
         d="M 10.169,8.9335 C 7.9704,10.939 6.3042,13.299 5.184,15.85 l 11.147,4.847 c 0.4559,-1.0366 1.119,-1.9937 2.009,-2.8055 0.02369,-0.02161 0.0454,-0.0419 0.06926,-0.06318 l -8.171,-8.9577 C 10.21506,8.891592 10.19213,8.912704 10.169,8.933802 z"
         inkscape:connector-curvature="0" />
      <path
         id="path3652"
         style="opacity:0.8;fill:url(#linearGradient3717)"
         d="m 6.7812,12.969 c -0.016978,0.02626 -0.045621,0.06739 -0.0625,0.09375 -1.1482,1.7935 -1.9617,3.6813 -2.5,5.625 l 11.75,3.125 c 0.21551,-0.763 0.51805,-1.5148 0.96875,-2.2188 0.01729,-0.027 0.04496,-0.06702 0.0625,-0.09375 l -10.219,-6.531 z"
         inkscape:connector-curvature="0" />
    </g>
    <path
       id="path2787"
       style="opacity:0.5;fill:none;stroke:url(#linearGradient3766)"
       d="M 24,4.5 C 13.191,4.5 4.5,13.1914 4.5,24 4.5,34.8086 13.1914,43.5 24,43.5 34.8086,43.5 43.5,34.809 43.5,24 43.5,13.191 34.809,4.5 24,4.5 z"
       inkscape:connector-curvature="0" />
    <path
       id="path3287"
       style="fill:none;stroke:url(#linearGradient3778)"
       d="M 24,3.5 C 12.637,3.5 3.5,12.637 3.5,24 3.5,35.363 12.637,44.5 24,44.5 35.363,44.5 44.5,35.363 44.5,24 44.5,12.637 35.363,3.5 24,3.5 z"
       inkscape:connector-curvature="0" />
    <path
       id="path3281"
       style="opacity:0.8;fill:none;stroke:url(#linearGradient3294)"
       d="m 24,15.5 c -4.7114,0 -8.5,3.7886 -8.5,8.5 0,4.7114 3.7886,8.5 8.5,8.5 4.7114,0 8.5,-3.7886 8.5,-8.5 0,-4.7114 -3.7886,-8.5 -8.5,-8.5 z"
       inkscape:connector-curvature="0" />
  </g>
  <g
     id="g576"
     style="opacity:0.2"
     transform="matrix(3.4105306,0,0,3.3943696,-50.354064,61.978763)">
    <path
       id="path577"
       d="M 45.882,9.821 C 45.725,9.243 45.384,8.687 44.897,8.213 44.131,7.47 43.066,6.975 41.725,6.742 41.448,6.695 41.152,6.657 40.846,6.633 40.584,6.612 40.336,6.613 40.096,6.613 H 39.903 L 38.126,6.611 H 36.35 L 35.831,6.614 C 35.447,6.618 35.084,6.622 34.725,6.607 L 34.64,6.603 C 34.431,6.59 34.144,6.573 33.836,6.669 L 33.834,6.67 c -0.368,0.115 -0.563,0.376 -0.657,0.501 0,0 -0.014,0.018 -0.014,0.019 L 33.02,7.362 32.946,7.45 31.8,8.813 31.485,9.185 c -0.269,0.316 -0.546,0.643 -0.813,0.979 0,0 -0.061,0.079 -0.112,0.147 C 30.487,10.081 30.413,9.85 30.331,9.62 L 30.148,9.113 C 30.017,8.754 29.893,8.415 29.789,8.073 L 29.748,7.931 C 29.694,7.748 29.634,7.54 29.542,7.328 l 0.004,0.008 -0.004,-0.01 C 29.324,6.764 28.908,6.64 28.679,6.616 L 28.412,6.611 28.382,6.613 H 17.591 V 7.424 H 17.41 V 7.422 C 17.407,7.437 17.403,7.452 17.399,7.467 17.035,7.377 16.716,7.299 16.716,7.299 L 16.395,8.602 16.38,8.653 c -0.035,0.115 -0.087,0.288 -0.087,0.497 0,0 0.032,0.073 0.043,0.097 -0.095,0.126 -0.161,0.277 -0.186,0.448 l 0.011,-0.056 -0.092,0.381 -0.624,2.607 -0.208,0.879 -0.063,0.269 -0.134,0.554 -0.022,0.071 c -0.041,0.132 -0.103,0.332 -0.103,0.565 v 0.9 h 3.114 l 1.515,0.004 0.235,10e-4 c 0.657,0.002 1.238,-0.039 1.776,-0.125 1.179,-0.188 2.247,-0.564 3.177,-1.116 0.899,-0.535 1.581,-1.144 2.038,-1.816 0.013,0.033 0.68,1.921 0.68,1.921 l 0.172,0.489 c 0.134,0.388 0.273,0.789 0.427,1.185 l 0.009,0.021 0.111,0.309 0.028,0.111 c 0.1,0.461 0.482,0.76 0.944,0.743 l 0.796,-0.478 c 0.241,-0.294 0.499,-0.576 0.772,-0.874 0,0 0.342,-0.376 0.343,-0.376 l 1.231,-1.39 0.65,-0.736 0.741,-0.837 c 0,0 0.122,-0.139 0.298,-0.336 -0.064,0.274 -0.126,0.535 -0.126,0.535 l -0.205,0.863 -0.054,0.206 c -0.057,0.21 -0.12,0.448 -0.145,0.716 l -0.087,0.98 h 3.647 l 0.448,0.002 c 1.021,0.005 2.078,0.011 3.144,-0.22 0.591,-0.127 1.168,-0.311 1.714,-0.546 0.606,-0.261 1.134,-0.595 1.569,-0.89 0.956,-0.642 1.673,-1.586 1.967,-2.59 0.18,-0.607 0.192,-1.231 0.038,-1.8 m -24.068,2.178 c -0.131,0.074 -0.287,0.133 -0.48,0.198 -0.268,0.091 -0.483,0.148 -0.679,0.181 -0.13,0.021 -0.266,0.033 -0.405,0.042 0.073,-0.307 0.156,-0.657 0.156,-0.657 0,0 0.361,-1.527 0.399,-1.687 0.205,0.004 0.407,0.012 0.603,0.033 0.192,0.021 1.156,0.15 1.21,0.655 0.003,0.03 0.004,0.059 0.004,0.088 0.001,0.477 -0.407,0.922 -0.808,1.147 m 17.325,0.383 c -0.122,0.018 -0.249,0.026 -0.375,0.033 0.023,-0.099 0.046,-0.198 0.07,-0.295 l 0.095,-0.399 0.071,-0.304 0.139,-0.585 0.048,-0.189 c 0.046,-0.176 0.092,-0.376 0.128,-0.584 0.394,0.015 0.771,0.056 1.123,0.156 0.301,0.085 0.503,0.191 0.601,0.314 0.064,0.083 0.099,0.197 0.099,0.325 v 0.03 c -0.017,0.418 -0.313,0.829 -0.791,1.1 -0.157,0.089 -0.338,0.167 -0.536,0.231 -0.262,0.085 -0.488,0.141 -0.672,0.167 m -9.957,5.211 c -0.015,0.001 -0.027,-0.001 -0.041,0 l -0.009,0.002 0.05,-0.002 z"
       inkscape:connector-curvature="0" />
  </g>
  <path
     id="path584"
     style="fill:#666666"
     d="m 65.033834,82.225221 c -1.255032,0.390343 -1.920048,1.276256 -2.24062,1.700522 0,0 -0.04774,0.06101 -0.04774,0.06439 l -0.487694,0.583825 -0.25238,0.29869 -3.908346,4.626327 -1.074266,1.262663 c -0.917396,1.072599 -1.862081,2.18248 -2.772563,3.323104 0,0 -0.20803,0.268124 -0.381959,0.498948 -0.248961,-0.780686 -0.501341,-1.564751 -0.78098,-2.348816 l -0.624112,-1.720912 c -0.446762,-1.218545 -0.869655,-2.365807 -1.224327,-3.53002 L 51.099022,86.501985 C 50.91486,85.880839 50.710227,85.174835 50.39649,84.455238 l 0.01351,0.02723 -0.01351,-0.03736 c -0.743467,-1.904179 -2.162202,-2.325047 -2.943182,-2.409924 l -0.910589,-0.01391 -0.102326,0.006 H 9.6380261 v 3.05472 C 8.1461673,84.725667 6.6556332,84.357422 6.6556332,84.357422 l -1.0947451,4.422849 -0.051157,0.176471 c -0.1193645,0.390324 -0.2967027,0.980946 -0.2967027,1.68695 0,0 0.1091319,0.247775 0.1466479,0.329234 -0.3239911,0.427704 -0.5490813,0.940225 -0.634338,1.520633 l 0.037516,-0.189985 -0.3137646,1.293208 -2.1280779,8.848898 -0.7093681,2.98345 -0.2148558,0.91304 -0.4569894,1.88381 -0.071618,0.24438 c -0.1398256,0.44803 -0.35127967,1.12349 -0.35127967,1.91777 v 3.05472 H 11.136889 l 5.166797,0.0139 h 0.801434 c 2.240622,0.01 4.222033,-0.13235 6.056984,-0.42428 4.020945,-0.63814 7.663295,-1.91776 10.834854,-3.79153 3.065847,-1.81253 5.391727,-3.87972 6.950349,-6.16401 0.04432,0.1087 2.319072,6.52035 2.319072,6.52035 l 0.586596,1.6598 c 0.456991,1.32038 0.93104,2.68143 1.456251,4.02573 l 0.0307,0.0713 0.378541,1.04543 0.09549,0.37677 c 0.347863,1.61227 1.725666,2.65096 3.359133,2.52533 l -0.170509,0.004 c 0,0 2.305427,-0.96737 2.544162,-1.40183 l 0.201219,-0.22403 c 0.821912,-0.99792 1.701794,-1.95511 2.632835,-2.9665 0,0 1.166357,-1.27966 1.169775,-1.27966 l 4.198188,-4.71798 2.216752,-2.49818 2.527098,-2.84091 c 0,0 0.416057,-0.4684 1.016298,-1.14046 -0.218254,0.93003 -0.429702,1.81252 -0.429702,1.81252 l -0.699142,2.93258 -0.184162,0.69583 c -0.194376,0.7128 -0.409248,1.52403 -0.494504,2.4303 l -0.296703,3.32972 h 12.437719 l 1.527865,0.008 c 3.482063,0.0159 7.086793,0.034 10.722254,-0.74675 2.01556,-0.43108 3.983325,-1.059 5.845565,-1.85326 2.066718,-0.8825 3.867282,-2.01958 5.350928,-3.01762 3.260314,-2.1825 5.705684,-5.38324 6.708204,-8.791122 0.61046,-2.060321 0.64798,-4.174875 0.12277,-6.106261 -0.53543,-1.961891 -1.69837,-3.849019 -3.35913,-5.457968 -2.61238,-2.521928 -6.244562,-4.198722 -10.8179,-4.989564 -0.944685,-0.159579 -1.954174,-0.288514 -2.997761,-0.373371 -0.893524,-0.07134 -1.739308,-0.06797 -2.557805,-0.06439 h -0.658211 l -6.060164,-0.0079 h -6.05354 l -1.76999,0.0079 c -1.309581,0.01391 -2.547578,0.02385 -3.771903,-0.02723 l -0.286131,-0.0079 c -0.712787,-0.04412 -1.69157,-0.101948 -2.742096,0.224027 l -0.007,0.0079 m -53.082613,13.60973 h 1.848437 c -0.25237,1.062384 -1.971209,8.292259 -1.971209,8.292259 0,0 -0.562725,2.40652 -0.743465,3.1975 H 7.4779015 c 0.057977,-0.23758 0.1159543,-0.48195 0.1159543,-0.48195 l 0.7127858,-2.98028 c 0,0 1.4016747,-5.841592 1.9268844,-8.02733 h 1.722248 m 7.288145,3.676006 c 0,0 1.231161,-5.182947 1.360742,-5.726073 0.699142,0.01391 1.388029,0.04074 2.056465,0.112083 0.65479,0.07134 3.942524,0.509123 4.126654,2.223239 0.01013,0.09837 0.01371,0.200259 0.01371,0.298689 0,1.619064 -1.388029,3.129443 -2.755607,3.889796 -0.446763,0.25459 -0.978782,0.45145 -1.636991,0.67546 -0.913978,0.30888 -1.647218,0.50235 -2.315653,0.61437 -0.443345,0.0713 -0.90717,0.11208 -1.381221,0.14249 0.252371,-1.04206 0.532019,-2.230034 0.532019,-2.230034 M 34.215615,88.160118 h 2.151975 v 2.413303 c 0,0.997917 0.242153,1.788778 0.45018,2.447266 0.136408,0.434481 0.22509,0.909661 0.276249,1.490088 0.0341,0.31906 0.04774,0.638138 0.04774,0.943605 0,1.059006 -0.177346,2.012804 -0.532019,2.851241 -0.845786,1.999209 -2.83403,3.967959 -5.753368,5.692169 -1.377803,0.81803 -2.898937,1.47991 -4.51876,2.00261 0.238729,-0.11209 0.47405,-0.20706 0.712785,-0.33945 3.662751,-2.04335 5.896697,-5.58698 5.896697,-9.232501 0,-0.312283 -0.01689,-0.627963 -0.05115,-0.943604 -0.395603,-3.672549 -3.185334,-6.320073 -7.591498,-7.328145 4.123212,0.004 8.911413,0.004 8.911413,0.004 m 21.795816,13.71287 0.849202,-1.09977 0.569535,-0.71955 0.712784,-0.940214 0.920816,-1.204972 C 59.916604,96.84668 60.834,95.774081 61.713908,94.735385 l 1.091329,-1.286412 3.908345,-4.619709 0.218254,-0.254572 c 0,0 0.18758,-0.230823 0.375152,-0.458249 0.03752,0 0.497921,0.03061 0.497921,0.03061 0.780981,0.03398 1.561961,0.04412 2.336133,0.04412 -0.753691,0.424266 -1.227743,1.014888 -1.476704,1.323752 0,0 -0.0716,0.08486 -0.0716,0.08824 -0.01689,0.02047 -3.093137,3.445242 -3.093137,3.445242 l -5.61348,6.296484 -2.516872,2.837489 -2.233813,2.51175 -4.157387,4.66713 c 0,0 -0.675273,0.73315 -0.937851,1.02506 -0.129611,-0.36999 -0.262605,-0.72977 -0.388795,-1.10992 L 49.051152,107.57922 44.951786,96.048917 44.058262,93.56431 c 0,0 -0.95833,-2.664477 -0.98901,-2.749255 -0.007,-0.02047 -0.02041,-0.06797 -0.02041,-0.06797 C 42.6703,89.416536 42.063225,88.63587 41.422078,88.170844 h 3.758391 c 0.0034,0.02385 0.184162,0.61437 0.184162,0.61437 0.40244,1.327151 0.876464,2.610184 1.333481,3.852438 l 0.60024,1.652986 c 0.627502,1.76501 1.176584,3.60818 1.708603,5.39678 0.184162,0.617752 0.358089,1.276262 0.409248,1.910962 0.126193,1.71749 1.551734,3.06505 3.2468,3.06505 l 2.076944,-0.22743 0.866239,-1.91777 c 0.08525,-0.17985 0.211446,-0.38015 0.40583,-0.64491 h -0.007 0.007 m 15.043371,3.60474 1.411901,-5.922936 0.552474,-2.392954 0.228508,-1.018286 c 0,0 0.0307,-0.128975 0.07504,-0.308884 0.528601,0.0079 1.227743,0.01391 1.227743,0.01391 h 2.380457 c -0.129611,0.553261 -0.262606,1.113299 -0.262606,1.113299 l -0.231899,1.011509 -0.323991,1.344123 c -0.381959,1.595289 -0.780981,3.251829 -1.122033,4.914839 0,0 -0.47747,2.31489 -0.641147,3.11249 h -3.741173 c 0.204611,-0.86895 0.446764,-1.86686 0.446764,-1.86686 m 11.035939,-4.73839 0.323992,-1.357691 0.242125,-1.028462 0.474052,-1.985638 0.163693,-0.641517 c 0.156876,-0.597379 0.313765,-1.276256 0.436538,-1.98226 1.343704,0.0475 2.629416,0.189985 3.829925,0.529493 1.026524,0.285136 1.715439,0.644915 2.049657,1.065802 0.218254,0.281718 0.337635,0.665265 0.337635,1.103144 v 0.09837 c -0.05797,1.418784 -1.067456,2.813881 -2.697587,3.733729 -0.535437,0.30209 -1.152713,0.56684 -1.827983,0.78409 -0.890109,0.29191 -1.657444,0.48539 -2.288392,0.57025 -0.416057,0.061 -0.849175,0.0882 -1.278902,0.11208 0.07502,-0.33601 0.153479,-0.67546 0.235317,-1.00129 m 8.181512,4.85707 c 3.492131,-1.96865 5.664612,-5.26111 5.811387,-8.808075 0.0034,-0.115461 0.007,-0.227425 0.007,-0.346225 0,-1.805749 -0.58318,-3.53002 -1.657444,-4.887815 -1.173194,-1.479913 -2.87165,-2.515151 -5.19753,-3.170221 -0.242125,-0.06797 -0.474051,-0.108705 -0.712784,-0.162958 0.828721,0.07134 1.626764,0.166336 2.373646,0.295292 3.325222,0.57363 5.876032,1.700522 7.577987,3.35013 0.87988,0.848552 1.473292,1.771787 1.718862,2.67797 0.0989,0.369994 0.15006,0.767093 0.15006,1.177806 0,0.522717 -0.0819,1.059006 -0.23874,1.608889 -0.60705,2.056903 -2.151976,4.039217 -4.242432,5.437557 -1.248196,0.83839 -2.74872,1.78537 -4.348143,2.47101 -0.675271,0.29189 -1.381221,0.54648 -2.09059,0.77727 0.279668,-0.13911 0.579762,-0.27155 0.849202,-0.42089 z"
     inkscape:connector-curvature="0" />
  <path
     id="path585"
     style="fill:#ffffff"
     d="m 9.0201142,84.78451 h 24.5752678 12.23319 c 0.22509,0 0.45357,-0.0306 0.682079,-0.006 0.272832,0.02723 0.354671,0.366576 0.45018,0.590603 0.310347,0.706004 0.497923,1.462922 0.723013,2.199471 0.552472,1.812545 1.25845,3.58779 1.892761,5.376627 0.647983,1.832916 1.203873,3.682902 1.756371,5.539566 0.25238,0.848572 0.460407,1.680153 0.525211,2.555863 0.01033,0.11209 0.105743,0.23083 0.18758,0.23083 0.05457,-0.15958 0.122774,-0.31229 0.197795,-0.46163 0.184162,-0.35978 0.409248,-0.70262 0.641146,-1.031855 0.470634,-0.658468 0.995846,-1.272838 1.493767,-1.917773 0.559309,-0.722975 1.091328,-1.469699 1.660863,-2.185898 1.23116,-1.537604 2.527099,-3.017637 3.795748,-4.524598 1.302774,-1.541002 2.605547,-3.082005 3.908347,-4.622889 0.279667,-0.332612 0.572951,-0.65507 0.835557,-1.001295 0.208027,-0.268145 0.416057,-0.587204 0.757109,-0.695829 0.620694,-0.193562 1.347097,-0.09837 1.981436,-0.07134 1.885952,0.08148 3.785416,0.0159 5.674945,0.0159 h 6.05354 c 2.01895,0 4.037902,0.004 6.05354,0.0099 0.992426,0.004 1.98827,-0.02723 2.980803,0.05087 0.913978,0.07472 1.817731,0.183228 2.72143,0.342827 3.328664,0.57365 6.732042,1.788778 9.194357,4.168257 1.15614,1.123494 2.10763,2.501559 2.53394,4.06625 0.40244,1.462922 0.32399,3.007284 -0.10232,4.449876 -0.85943,2.915627 -2.970472,5.437557 -5.473595,7.117787 -1.558544,1.04206 -3.12387,2.00259 -4.849668,2.74608 -1.701795,0.72637 -3.471731,1.28641 -5.279394,1.67336 -3.816148,0.8214 -7.724496,0.67206 -11.60211,0.67206 h -9.082032 c 0.08184,-0.91304 0.392187,-1.80575 0.607051,-2.69493 0.228506,-0.97414 0.463825,-1.95171 0.695723,-2.92596 0.470634,-1.97546 0.941267,-3.95101 1.415319,-5.926372 0.266022,-1.123493 0.518374,-2.250405 0.774172,-3.380595 0.119357,-0.539668 0.24896,-1.069181 0.392185,-1.605491 0.07844,-0.281738 0.143244,-0.695829 0.341053,-0.926652 0.09549,-0.11884 0.327409,-0.132354 0.467215,-0.145867 0.306931,-0.03398 0.620694,-0.03398 0.927625,-0.02723 0.726403,0.0159 1.449414,0.03398 2.175846,0.03398 h 6.230782 c -0.126193,0.967373 -0.409248,1.900802 -0.641147,2.844366 -0.248962,1.004694 -0.48086,2.02298 -0.719595,3.037769 -0.491087,2.050122 -0.999236,4.100152 -1.428964,6.167462 1.862081,0 3.720772,0.068 5.562348,-0.18998 0.937849,-0.13235 1.920049,-0.39714 2.817073,-0.69583 0.828721,-0.26814 1.633572,-0.60759 2.387291,-1.03186 2.298619,-1.29661 4.143611,-3.550406 4.252765,-6.269195 0.04436,-1.15064 -0.269415,-2.308096 -0.995844,-3.217658 -0.890108,-1.126872 -2.267911,-1.737844 -3.62513,-2.118012 -3.386422,-0.957177 -7.039103,-0.607573 -10.521168,-0.590582 -1.009489,0.004 -2.015533,0.0079 -3.028492,0.01391 -0.484278,0 -0.968556,0.004 -1.456251,0.004 -0.494505,0.004 -1.050395,-0.06439 -1.538089,0.0159 -0.416057,0.06797 -0.702535,0.563436 -0.961723,0.85195 -0.354669,0.39714 -0.70595,0.787463 -1.060647,1.184583 -0.682079,0.760317 -1.360742,1.517235 -2.046239,2.274173 -2.72143,3.027693 -5.415836,6.079231 -8.123489,9.120441 -2.134913,2.39975 -4.24932,4.81655 -6.404846,7.19913 -1.302773,1.43915 -2.656786,2.8478 -3.89457,4.34469 -0.119357,0.14587 -0.296703,0.31228 -0.364924,0.49557 -0.0034,0.01 -0.0034,0.0139 -0.0034,0.0238 -0.136407,0 -0.15006,0.0407 -0.180743,-0.10871 -0.04773,-0.21383 -0.102326,-0.42426 -0.17051,-0.63474 -0.136407,-0.45143 -0.310347,-0.89267 -0.484278,-1.33394 -0.723011,-1.8431 -1.343705,-3.73376 -2.008723,-5.59388 -1.36416,-3.84239 -2.731762,-7.68795 -4.095922,-11.53031 -0.422893,-1.184622 -0.856011,-2.369205 -1.275485,-3.550429 -0.211446,-0.573631 -0.416057,-1.143863 -0.624112,-1.717494 -0.109122,-0.305486 -0.265997,-1.218565 -0.723011,-1.218565 0,0.539688 0.15006,1.025063 0.317181,1.541003 0.214863,0.69245 0.334218,1.384861 0.399021,2.107837 0.167092,1.782001 -0.01351,3.60818 -0.716176,5.271182 -1.309584,3.088906 -4.181233,5.457966 -7.011817,7.134766 -2.983982,1.76501 -6.336492,2.85468 -9.750466,3.39754 -1.848438,0.2953 -3.693484,0.39375 -5.558904,0.38355 -1.99508,-0.004 -3.986768,-0.0139 -5.981742,-0.0139 H 4.4229053 2.9632628 c 0,-0.45485 0.2080337,-0.947 0.3239912,-1.38824 0.2523707,-0.947 0.4638247,-1.90758 0.6888884,-2.86132 0.9481026,-3.94067 1.8859522,-7.884783 2.8409169,-11.822276 0.1023135,-0.434481 0.2080334,-0.865544 0.3137645,-1.296606 0.037514,-0.15958 -0.00342,-0.234202 0.1773397,-0.234202 h 0.3649249 0.7298212 2.9294054 5.729522 c -0.958329,4.011937 -1.913241,8.034214 -2.868206,12.046144 1.926886,0 3.874171,0.0984 5.773767,-0.21723 0.954913,-0.15262 1.889371,-0.42426 2.799853,-0.73315 0.743465,-0.25119 1.469896,-0.51594 2.151975,-0.89607 2.54416,-1.4154 4.621027,-4.161359 4.297008,-7.182176 -0.358088,-3.360186 -3.928745,-4.626308 -6.848084,-4.93867 -1.766597,-0.193561 -3.550154,-0.145866 -5.323641,-0.142488 -2.029176,0.0079 -4.054856,0 -6.084271,0 H 8.6377494 8.150054 c -0.1364154,0 -0.4910869,0.07134 -0.4910869,-0.07472 0,-0.363177 0.1705213,-0.777288 0.2591903,-1.126892 0.3649239,-1.476495 0.7298212,-2.949533 1.0947451,-4.426028"
     inkscape:connector-curvature="0" />
  <path
     id="path5593"
     style="fill:url(#linearGradient7559);fill-rule:evenodd;stroke:#771313;stroke-width:2.64936733;stroke-linejoin:round"
     d="m 76.018113,107.12928 h 7.948103 7.948101 v 7.9481 h -7.948101 -7.948103 -7.948104 v -7.9481 h 7.948104 z"
     inkscape:connector-curvature="0" />
  <path
     id="text6701"
     style="fill:url(#linearGradient3892);stroke:#771313;stroke-width:5.29873466"
     d="m 104.67897,124.35016 h -5.459022 c 1.849762,-8.75748 3.699572,-17.51496 5.549362,-26.272441 4.40008,0.02206 8.802,-0.0467 13.20101,0.03915 2.27135,0.0632 4.83218,0.729633 6.01353,2.846211 1.59929,2.72064 1.37613,6.4308 -0.50161,8.96945 -1.52709,2.06077 -4.13274,2.95509 -6.60222,3.25289 2.34374,2.22212 3.46034,5.3525 4.8094,8.20084 0.15024,0.85394 1.42494,2.48886 0.96081,2.96412 h -5.58936 c -1.03127,-2.9355 -2.16782,-5.8567 -3.62646,-8.60965 -0.68441,-1.32874 -1.9941,-2.33379 -3.55201,-2.25016 -0.96876,-0.0348 -1.93864,-0.0119 -2.90793,-0.0179 -0.76523,3.62619 -1.53044,7.25211 -2.29563,10.8783 z m 3.12705,-14.82082 c 2.90688,-0.0547 5.87365,0.21163 8.71245,-0.51969 2.16975,-0.65565 3.93775,-3.37954 2.61392,-5.47281 -1.09362,-1.34327 -3.01154,-0.99248 -4.55534,-1.06857 -1.76296,0 -3.52603,0 -5.28892,0 -0.49408,2.35365 -0.98813,4.70741 -1.48222,7.06084 z"
     inkscape:connector-curvature="0" />
  <path
     id="text6713"
     style="fill:url(#linearGradient3895)"
     d="m 104.67897,124.35016 h -5.459022 c 1.849762,-8.75748 3.699572,-17.51496 5.549362,-26.272441 4.34364,0.01789 8.68834,-0.03617 13.03119,0.03001 2.16792,0.08565 4.61704,0.546405 5.9155,2.459341 1.70114,2.38234 1.68915,5.71071 0.44453,8.28936 -1.28006,2.64122 -4.22229,3.96053 -7.02586,4.29489 -0.35209,0.24644 1.03745,1.14835 1.24702,1.76461 1.89286,2.94661 3.21659,6.20719 4.53597,9.43439 h -5.85668 c -0.97108,-2.80569 -2.08585,-5.57375 -3.40736,-8.23502 -0.6563,-1.21231 -1.65395,-2.51138 -3.16758,-2.56998 -1.16594,-0.12421 -2.34082,-0.0549 -3.51121,-0.0731 -0.76521,3.62621 -1.53043,7.25214 -2.29562,10.87832 z m 3.12705,-14.82082 c 2.84277,-0.0465 5.73244,0.18462 8.52248,-0.45677 2.12652,-0.56857 3.89563,-2.96995 3.03803,-5.14084 -0.6301,-1.4477 -2.43567,-1.44269 -3.78329,-1.46171 -2.09836,-0.004 -4.19687,-6.2e-4 -6.29516,-0.002 -0.49408,2.35365 -0.98814,4.70739 -1.48222,7.06082 z"
     inkscape:connector-curvature="0" />
</svg>
